<svg xmlns="http://www.w3.org/2000/svg" id="af" viewBox="0 0 40.7 25.94"><defs><style>.cls-1{fill:#2d307a;}.cls-2{fill:#fbfcff;}.cls-10,.cls-11,.cls-12,.cls-2,.cls-3,.cls-4,.cls-5,.cls-6,.cls-7,.cls-8,.cls-9{fill-rule:evenodd;}.cls-3{fill:#f9fafc;}.cls-4{fill:#f9f9fb;}.cls-5{fill:#f6f8fb;}.cls-6{fill:#9ab0d4;}.cls-7{fill:#fff;}.cls-8{fill:#ccb5c1;}.cls-9{fill:#c9202d;}.cls-10{fill:#d65d55;}.cls-11{fill:#2b3277;}.cls-12{fill:#293474;}</style></defs><title>Ресурс 12</title><g id="Слой_2" data-name="Слой 2"><g id="Layer_1" data-name="Layer 1"><rect class="cls-1" width="40.7" height="25.94"/><path class="cls-2" d="M13.3,20.24h-.08l-.66.05-.65.06-.46,0h-.11s0,0,0,0l.05.37.07.51.09.64,0,.32s0,0,0,0l-.08-.08-.09-.09-.08-.08L11.23,22l-.09-.09-.08-.08L11,21.71l-.09-.09-.08-.08-.08-.08-.08-.08-.09-.09-.08-.08-.08-.08L10.28,21l-.09-.08-.14.14-.13.14-.14.14-.13.14-.14.14-.13.14-.14.14L9.1,22,9,22.17l-.13.13a.09.09,0,0,1,0-.07l.15-1,.11-.73v0c0-.06,0-.06-.06-.07l-.23,0-.85-.07-.74-.06H7.09s0,0,.05,0l1-.56.61-.35.06,0a.14.14,0,0,0,0-.07l-.88-1.27-.15-.22a.07.07,0,0,1,0,0,.15.15,0,0,1,.08,0l1.44.52.33.12s0,0,0,0l.1-.3.48-1.42s0-.05,0-.07l.61,1.81.07,0,1.72-.62a.23.23,0,0,1,.09,0l-.18.27-.18.27-.18.27-.18.26-.18.27-.19.27.29.17.29.16.29.16.28.16.29.16.29.16Z"/><path class="cls-3" d="M30.22,3.8l.1-.29.1-.3.1-.3,0,.09.25.73v0s0,0,0,0l.07,0,.74-.27s0,0,.07,0l-.05.08-.43.62,0,.05a0,0,0,0,0,0,0l.05,0L32,4.7a.15.15,0,0,1,.06,0l-.07,0-.45,0-.4,0s0,0,0,.05l0,.14.09.65v.08h0l-.62-.62h0s0,0-.07.05l-.55.56,0,0s0,0,0,0l.06-.42L30,4.9v0s0,0,0,0h0l-.81-.07-.09,0a1.89,1.89,0,0,1,.21-.12l.2-.12.21-.12.21-.12a1,1,0,0,0-.07-.11L29.68,4l-.08-.11-.07-.1-.08-.11-.08-.11-.08-.11s.05,0,.07,0l.76.27Z"/><path class="cls-3" d="M29,22l.82-.47-.13-.2-.13-.19L29.44,21a2.12,2.12,0,0,1-.13-.19.11.11,0,0,1,.07,0l.74.27c.11,0,.09.05.13-.06l.25-.75s0,0,0,0l.09.26.18.54,0,.06a0,0,0,0,0,0,0l.08,0,.74-.27.08,0a.16.16,0,0,1,0,.06l-.45.65c0,.07-.06.06,0,.11l.68.39L32,22l-.09,0-.66.05-.18,0s0,0,0,0l0,.25.08.53V23s0,0,0,0l-.55-.56-.08-.08c-.06.05-.12.11-.17.17l-.16.16-.17.17-.16.16s0,0,0,0l.06-.43.06-.39v0s0,0,0,0h-.17L29.1,22H29Z"/><path class="cls-4" d="M35.58,10.14c0,.3.09.6.13.9,0,0,0,0,0,0l-.56-.57a.21.21,0,0,0-.06-.05l-.06.05-.55.55a.16.16,0,0,1-.07.06l0-.27.09-.6v0s0,0,0,0l-.28,0L33.56,10s0,0,0,0l.2-.12.21-.12.2-.11.2-.11a.11.11,0,0,0,0-.06l-.45-.65,0-.08.31.11.3.11.3.11c0-.1.07-.2.1-.3l.1-.29.1-.29s0,0,0,0l.26.76,0,.05a0,0,0,0,0,0,0l.06,0,.76-.27.07,0-.14.2L36,9.17l-.13.19-.13.19a.19.19,0,0,0,.07,0l.7.39,0,0s0,0,0,0h0l-.42,0-.44,0A.14.14,0,0,0,35.58,10.14Z"/><path class="cls-4" d="M24.26,10.5l.58.21.27.1s0,0,0,0l.1-.3.17-.52v0s0,0,0,0l.26.77,0,.08.45-.16.45-.16s0,0,0,.05l-.46.66a.19.19,0,0,0,0,.07l.27.15.28.16.27.15s0,0,0,0l-.66.05-.23,0s0,0,0,0l0,.3.08.57s0,0-.06,0l-.56-.56a.14.14,0,0,0-.07-.05l-.22.22-.22.23-.22.22a.19.19,0,0,1,0,0l.12-.82c0-.07,0-.07-.07-.08l-.65-.05-.22,0h0l.06,0,.68-.38.07,0a.16.16,0,0,0,0-.07l-.43-.63,0-.07Z"/><path class="cls-5" d="M33.08,14.82a.22.22,0,0,1-.08,0l-.37-.22,0,0h0l0,0-.39.23s0,0-.06,0a.05.05,0,0,1,0,0l.11-.44v-.05a0,0,0,0,0,0,0l0,0-.35-.28s0,0,0,0l.15,0,.39,0a.08.08,0,0,0,.09-.06l.16-.39,0-.08s0,0,0,.05l.18.41c0,.08,0,.06.1.07l.36,0h.16s0,0,0,0l-.36.29,0,0a0,0,0,0,0,0,0l0,.07.11.44Z"/><path class="cls-6" d="M24.26,10.5h0s0,0,0,0Z"/><path class="cls-7" d="M6.76,4.36c.09,0,0-.05,0-.06L6,3.82C4,2.55,2,1.27,0,0H2.3Q5.39,2,8.5,4V0h.67V5.23H0V4.36H4.51s-.08-.07-.12-.1C2.93,3.34,1.49,2.38,0,1.46V1c1.76,1.12,3.5,2.26,5.26,3.38Z"/><path class="cls-8" d="M9.16,0h0V5.23h0Z"/><path class="cls-9" d="M9.18,0h2V5.23c3,0,6.11,0,9.16,0v2.6c-3.05,0-6.12,0-9.16,0,0,1.76,0,3.55,0,5.32h-2V7.85c-3,0-6.1,0-9.15,0V5.24H9.17C9.18,3.5,9.17,1.74,9.18,0Z"/><path class="cls-9" d="M0,0,.45.29l3,1.9,3.27,2.1s.08,0,.09.07H5.67a2.26,2.26,0,0,1-.37,0,.78.78,0,0,1-.17-.1C3.41,3.16,1.74,2.06,0,1Z"/><path class="cls-10" d="M13.54,4.36c-.45,0-.95,0-1.4,0Z"/><path class="cls-11" d="M20.36,5.23h0c0,.86,0,1.77,0,2.63h0V5.24Z"/><path class="cls-10" d="M0,7.85H0c3,0,6.11,0,9.15,0v5.32h0V7.86C6.14,7.83,3.06,7.85,0,7.85Z"/><path class="cls-9" d="M0,13.08c1.13-.74,2.28-1.45,3.38-2.18l.85-.54c.78-.49,1.54-1,2.32-1.5a1.29,1.29,0,0,1,.22-.13,2.06,2.06,0,0,1,.37,0h1.1s0,0,0,0c-.55.37-1.11.72-1.67,1.08-1.73,1.1-3.45,2.23-5.17,3.34H0Z"/><path class="cls-9" d="M20.36,13.08c-2.26-1.44-4.5-2.9-6.76-4.34h1.11a2.26,2.26,0,0,1,.37,0,.73.73,0,0,1,.17.1l5.11,3.28Z"/><path class="cls-11" d="M20.36,12.1h0c0,.32,0,.68,0,1h0v-1Z"/><path class="cls-11" d="M0,13.17h1.4C1,13.18.49,13.17,0,13.17Z"/><path class="cls-11" d="M9.16,13.17h2C10.54,13.18,9.83,13.18,9.16,13.17Z"/><path class="cls-10" d="M0,0H0L5.95,3.82c.28.18.57.35.83.54h0s-.06-.05-.09-.07L3.4,2.18.45.29Z"/><path class="cls-8" d="M2.3,0h0s0,0,0,0l.06,0,.35.22.06,0,0,0a.18.18,0,0,0,.07,0l.25.16.06,0,0,0,.06,0,.35.22.06,0,.35.22.06,0,.35.22.06,0,.35.22.06,0,.35.22.06,0,0,0a.18.18,0,0,0,.07,0l.25.16.06,0,0,0,.06,0,.35.22.06,0,.35.22.06,0L7,3l.06,0,.35.22.06,0,.35.22.06,0,0,0a.18.18,0,0,0,.07,0l.25.16.06,0,0,0,.06,0,.1.06V0h0V4Q5.38,2,2.3,0Z"/><path class="cls-8" d="M0,1.46c1.46.92,2.91,1.87,4.37,2.8,0,0,.1.05.12.1h0c-.36-.25-.74-.48-1.11-.72C2.29,2.9,1.14,2.19,0,1.47Z"/><path class="cls-8" d="M0,1H0L5.29,4.36C3.52,3.25,1.78,2.11,0,1Z"/><path class="cls-8" d="M0,0C2,1.27,4,2.55,6,3.82l.74.48s.13.07,0,.06h0c-.27-.19-.55-.36-.83-.54L0,0Z"/><path class="cls-12" d="M8.39,3.92l-.06,0Z"/><path class="cls-12" d="M8.29,3.85l-.06,0Z"/><path class="cls-12" d="M8,3.66a.18.18,0,0,1-.07,0Z"/><path class="cls-12" d="M7.89,3.59l-.06,0Z"/><path class="cls-12" d="M7.48,3.33l-.06,0Z"/><path class="cls-12" d="M7.07,3.07,7,3Z"/><path class="cls-12" d="M6.67,2.81l-.06,0Z"/><path class="cls-12" d="M6.26,2.55l-.06,0Z"/><path class="cls-12" d="M5.85,2.28l-.06,0Z"/><path class="cls-12" d="M5.75,2.22l-.06,0Z"/><path class="cls-12" d="M5.45,2a.18.18,0,0,1-.07,0Z"/><path class="cls-12" d="M5.35,2l-.06,0Z"/><path class="cls-12" d="M4.94,1.7l-.06,0Z"/><path class="cls-12" d="M4.53,1.43l-.06,0Z"/><path class="cls-12" d="M4.13,1.17l-.06,0Z"/><path class="cls-12" d="M3.72.91l-.06,0Z"/><path class="cls-12" d="M3.31.65l-.06,0Z"/><path class="cls-12" d="M3.21.58l-.06,0Z"/><path class="cls-12" d="M2.91.39a.18.18,0,0,1-.07,0Z"/><path class="cls-12" d="M2.81.32l-.06,0Z"/><path class="cls-12" d="M2.4.06,2.34,0Z"/><path class="cls-10" d="M9.17,0h0c0,1.74,0,3.5,0,5.24h0Z"/><path class="cls-10" d="M11.19,0h0c0,1.68,0,3.36,0,5.07a1.36,1.36,0,0,0,0,.16,1.91,1.91,0,0,0,.29,0h8.86c-3.05,0-6.12,0-9.16,0Z"/><path class="cls-10" d="M11.19,13.17c0-1.77,0-3.56,0-5.32,3,0,6.11,0,9.16,0h0c-3,0-6.1,0-9.15,0,0,1.76,0,3.55,0,5.32Z"/><path class="cls-8" d="M11.87,0h0V4l6.18-4h0c-1.93,1.24-3.86,2.51-5.81,3.74l-.19.13a.74.74,0,0,1-.2.11Z"/><path class="cls-7" d="M18.07,0h.75L12.09,4.33s0,0,0,0h0s0,0,.05,0c.45,0,.95,0,1.4,0h0C15.84,2.93,18.1,1.44,20.35,0V1.45c-1.11.75-2.26,1.44-3.38,2.18L16.41,4a6.29,6.29,0,0,0-.56.36c1.49,0,3,0,4.5,0v.86H11.21V0h.67V4a.74.74,0,0,0,.2-.11l.19-.13C14.21,2.51,16.14,1.24,18.07,0Z"/><path class="cls-8" d="M12.09,4.36h0s0,0,0,0l0,0S12.09,4.35,12.09,4.36Z"/><path class="cls-8" d="M13.57,4.36c2.26-1.46,4.52-2.9,6.77-4.36h0c0,.43,0,1,0,1.42,0,0,0,0,0,.05a.85.85,0,0,1-.14.09c-1.41.9-2.8,1.81-4.21,2.7l-.06,0s-.06,0,0,0h4.46s0,0,0,0v.86H11.49a1.91,1.91,0,0,1-.29,0,1.36,1.36,0,0,1,0-.16c0-1.71,0-3.39,0-5.07h0V5.23h9.14V4.36c-1.5,0-3,0-4.5,0A6.29,6.29,0,0,1,16.41,4L17,3.63c1.12-.74,2.27-1.43,3.38-2.18V0C18.1,1.44,15.84,2.93,13.57,4.36Z"/><path class="cls-10" d="M13.56,4.36,20.33,0h0c-2.25,1.46-4.51,2.91-6.77,4.36Z"/><path class="cls-10" d="M12.09,4.36s0,0,0,0l0,0L18.82,0h0l-.42.29L12.08,4.34h0Z"/><path class="cls-8" d="M9.16,13.17c-.22,0-.46,0-.67,0V9.11h0L5.1,11.28,2.35,13a.59.59,0,0,1-.22.12c-.22,0-.45,0-.7,0h.36a2.07,2.07,0,0,0,.36,0A1,1,0,0,0,2.36,13l1.38-.89c1.34-.85,2.63-1.71,4-2.55.26-.17.51-.35.79-.5v4.06c.21,0,.44,0,.66,0,0-1.75,0-3.53,0-5.3-3,0-6.09,0-9.14,0H0c3,0,6.12,0,9.14,0v5.31Z"/><path class="cls-8" d="M13.6,8.74h0s.06,0,.07,0c.34,0,.7,0,1,0a2.46,2.46,0,0,1,.38,0,.71.71,0,0,1,.17.1c1.7,1.1,3.4,2.18,5.1,3.28v-.23a.91.91,0,0,0,0-.23c0-.05-.23-.15-.28-.19-1.23-.78-2.44-1.57-3.66-2.36L16,8.82a.41.41,0,0,1-.13-.1h4.49c0-.27,0-.57,0-.86H11.21c0,1.76,0,3.54,0,5.3h.66c0-1.34,0-2.73,0-4.07l2.39,1.53L18,13a1,1,0,0,0,.2.12,1.59,1.59,0,0,0,.27,0c.61,0,1.26,0,1.85,0,0-.08-.08-.11-.13-.14l-.81-.52a3,3,0,0,1-.32-.21l1.26.81h0v.07H18.74a4.09,4.09,0,0,1-.5,0,.74.74,0,0,1-.22-.12l-1.38-.9c-1.58-1-3.08-2-4.66-3l-.05,0s0,0,0,0a1.13,1.13,0,0,0,0,.26c0,1.27,0,2.55,0,3.79H11.2c0-1.77,0-3.56,0-5.32,3,0,6.11,0,9.15,0h0v.86H15.87s.08.06.13.09c1.43.94,2.91,1.87,4.34,2.8a3.66,3.66,0,0,1,0,.49h0L15.09,8.72c-.5,0-1,0-1.51,0Z"/><path class="cls-10" d="M5.29,4.36,0,1H0C1.74,2.06,3.41,3.16,5.13,4.26a.78.78,0,0,0,.17.1,2.26,2.26,0,0,0,.37,0H5.29Z"/><path class="cls-7" d="M1.42,13.16c.91-.58,1.8-1.17,2.71-1.74,1.22-.79,2.45-1.57,3.66-2.36a5.14,5.14,0,0,0,.51-.34H7.18a2.38,2.38,0,0,0-.37,0,1,1,0,0,0-.22.13C4.4,10.26,2.21,11.65,0,13.07V11.62c1.5-1,3-1.92,4.5-2.9-1.49,0-3,0-4.5,0V7.86c3,0,6.1,0,9.14,0,0,1.76,0,3.54,0,5.3-.22,0-.45,0-.66,0V9.1c-.27.15-.52.33-.79.5-1.34.85-2.63,1.7-4,2.55L2.36,13a1,1,0,0,1-.21.12,2.07,2.07,0,0,1-.36,0Z"/><path class="cls-8" d="M4.13,11.42c1.38-.91,2.79-1.79,4.17-2.7H6.79L0,13.08H0c2.19-1.42,4.37-2.81,6.57-4.22a1,1,0,0,1,.22-.13,2.38,2.38,0,0,1,.37,0H8.31a5.14,5.14,0,0,1-.51.34C6.58,9.85,5.35,10.63,4.13,11.42Z"/><path class="cls-8" d="M0,11.61c1.49-1,3-1.92,4.48-2.89H0c1.5,0,3,0,4.5,0-1.48,1-3,1.93-4.5,2.9Z"/><path class="cls-7" d="M13.6,8.74h0l5.48,3.53a3,3,0,0,0,.32.21l.81.52s.14.06.13.14c-.59,0-1.24,0-1.85,0a1.59,1.59,0,0,1-.27,0A1,1,0,0,1,18,13l-3.75-2.42L11.88,9.09c0,1.34,0,2.73,0,4.07h-.66c0-1.77,0-3.55,0-5.3h9.14c0,.28,0,.58,0,.86H15.86a.41.41,0,0,0,.13.1l.43.27c1.22.79,2.43,1.58,3.66,2.36.05,0,.26.14.28.19a.91.91,0,0,1,0,.23v.23c-1.7-1.1-3.4-2.18-5.1-3.28a.71.71,0,0,0-.17-.1,2.46,2.46,0,0,0-.38,0c-.35,0-.71,0-1,0,0,0-.07,0-.07,0Z"/><path class="cls-10" d="M13.6,8.74l0,0c.49,0,1,0,1.51,0l5.26,3.38h0L15.25,8.83a.73.73,0,0,0-.17-.1,2.26,2.26,0,0,0-.37,0H13.59c2.26,1.44,4.5,2.9,6.76,4.34h0l-1.26-.81L13.61,8.74Z"/><path class="cls-10" d="M0,13.08,6.79,8.72H8.31c-1.38.91-2.79,1.79-4.17,2.7-.91.57-1.8,1.16-2.71,1.74h0c1.71-1.1,3.44-2.24,5.17-3.34.56-.35,1.12-.7,1.67-1.08,0,0,0,0,0,0H7.17a2.06,2.06,0,0,0-.37,0,1.29,1.29,0,0,0-.22.13c-.79.5-1.54,1-2.32,1.5l-.85.54C2.3,11.64,1.16,12.34,0,13.08Z"/><path class="cls-9" d="M12.15,4.36s0,0-.05,0h0L18.41.29,18.83,0h1.5L13.56,4.36H12.15Z"/></g></g></svg>