<svg xmlns="http://www.w3.org/2000/svg" viewBox="0 0 542.29 502.47">
  <defs>
    <style>
      .a {
        fill: #cacac9;
      }

      .b {
        fill: #da84b7;
      }

      .c, .d {
        fill: #dfe5ef;
      }

      .d {
        font-size: 8.2px;
        font-family: OpenSans, OpenSans;
      }
    </style>
  </defs>
  <title>map_aust</title>
  <g>
    <polygon class="a" points="411.43 456.39 408.8 462 414.05 475.87 414.24 484.49 421.35 500.42 430.72 502.48 441.78 494.23 448.9 482.06 450.02 463.69 429.42 465.57 411.43 456.39"/>
    <polygon class="a" points="321.67 38.74 324.68 42.11 326.36 48.48 318.68 46.42 318.68 42.49 321.67 38.74"/>
    <polygon class="a" points="224.41 0 219.91 8.35 227.33 9.27 235.01 11.13 241.25 2.39 239.51 0.14 229.72 2.52 224.41 0"/>
    <polygon class="a" points="207.71 61.95 220.19 61.55 213.86 49.78 237.1 17.38 260.95 15.79 259.6 4.99 295.8 16.81 311.65 11.99 313.7 17.45 322.15 17.45 318.45 25.39 300.25 56.23 340.02 85.5 336.23 228.88 216.37 228.9 207.71 61.95"/>
    <polygon class="a" points="48.57 374.5 48.57 366.93 55.55 360.71 50.7 338.88 31.76 300.26 7.89 265.53 15.25 255.97 0.58 226.66 0 200.31 3.61 204.82 11.31 194.24 32.61 171.47 95.03 145.15 110.23 121.15 105.76 106.27 114.86 94.15 129.38 105.94 127.53 89.4 143.61 89.4 140.25 75.12 169.63 47.84 185.47 54.73 203.03 61.34 216.21 315.51 177.99 327.77 159.27 337.9 149 354.06 103.71 362.97 80.15 381.37 48.57 374.5"/>
    <polygon class="a" points="354.95 396.27 351.01 373.44 340.23 372.72 341.06 356.43 327.63 362.32 335.57 333.69 304.56 358.74 290.25 337.6 275.44 318.89 248.04 311.06 220.81 314.55 216.61 233.54 376.84 233.52 367.37 409.26 354.95 396.27"/>
    <polygon class="b" points="413.88 417.17 393.41 425.52 371.8 413.36 374.92 355.32 383.82 356.5 397.49 366.76 399.06 373.53 414.08 387.26 452.97 390.72 455.41 402.61 466.86 411.48 469.62 412.23 447.01 418.45 429.38 429.73 413.88 417.17"/>
    <polygon class="a" points="468.98 407.24 459.62 399.99 456.82 386.4 416.05 382.78 403.26 371.08 401.63 364.06 385.63 352.06 375.18 350.67 379.06 278.73 483.08 288.18 489.35 283.21 507.33 286.37 517.66 294.92 528.95 285.05 541.78 286.78 542.29 295.01 531.37 319.76 506.79 354.04 485.61 388.79 476.71 409.36 468.98 407.24"/>
    <polygon class="a" points="509.35 282.01 488.1 278.28 481.65 283.38 379.31 274.09 381.74 228.88 340.87 228.88 344.59 88.42 375.97 106.67 402.28 67.61 404.53 26.18 415.03 2.72 424.02 21.87 431.09 54.92 440.34 54.92 450.99 64.24 453.95 93.06 459.9 103.47 460.66 125.67 494.6 154.32 503.74 190.86 516.34 194.57 518.45 208.62 538.62 237.76 541.48 282.06 527.48 280.16 517.58 288.82 509.35 282.01"/>
  </g>
  <path class="c" d="M1243.89,2369.86v-6l-6.48-3.13v-3.89l-3.56,2.14-2.37,1.42v-3.56l-6.48,3.89v.68a.4.4,0,0,0-.15,0h-3.28a.41.41,0,0,0-.41.41v1.64h-.87v.58a2.92,2.92,0,0,0-1.92,2.74v3.14h-1v2.1h28.51v-2.1Zm-18.89,0h-.73v-3.14a2.92,2.92,0,0,0-1.92-2.74v-.58H1222v-1.23h2.87a.42.42,0,0,0,.15,0Zm5.48-.58h-2.09v-2.05h2.09Zm0-3.63h-2.09v-2.05h2.09Zm3.38,3.63h-2.09v-2.05h2.09Zm0-3.63h-2.09v-2.05h2.09Zm3,3.63h-2.09v-2.05h2.09Zm0-3.63h-2.09v-2.05h2.09Zm3,3.63h-2.09v-2.05h2.09Z" transform="translate(-822.79 -1957.32)"/>
  <text class="d" transform="translate(389.59 396.5)">МЕЛЬБУРН</text>
</svg>
