<svg id="Layer_1" data-name="Layer 1" xmlns="http://www.w3.org/2000/svg" viewBox="0 0 1920 768">
  <defs>
    <style>
      .cls-1 {
        fill: #f1f1f1;
      }

      .cls-2 {
        fill: #969696;
      }

      .cls-3 {
        fill: #cacac9;
      }

      .cls-4 {
        fill: #4c6c9c;
      }

      .cls-5 {
        fill: #da84b7;
      }

      .cls-6 {
        font-size: 8.2px;
        fill: #fff;
        font-family: OpenSans, OpenSans;
      }

      .cls-7 {
        fill: #dfe5ef;
      }
    </style>
  </defs>
  <title>map_europe_id</title>
  <rect id="_back_gr_" data-name="&lt;back_gr&gt;" class="cls-1" width="1920" height="768"/>
  <rect class="cls-1" x="448" width="1024" height="768"/>
  <g>
    <polygon class="cls-2" points="877.68 645.13 881.37 634.6 887.16 631.45 889.79 615.13 894 614.07 902.95 595.65 912.43 592.49 911.9 580.38 886.63 569.33 890.32 552.48 907.69 549.85 967.71 578.8 984.03 593.01 1002.98 599.86 1003.51 605.65 1008.24 601.97 1022.46 609.34 1018.77 619.34 989.82 621.44 968.23 642.5 975.6 655.66 956.12 667.77 943.49 670.93 936.12 680.41 905.06 669.88 889.27 676.19 877.68 645.13"/>
    <polygon class="cls-2" points="1004.05 598.77 1006.1 598.95 1007.59 600.63 1004.24 603.79 1004.05 598.77"/>
    <polygon class="cls-2" points="971.92 578.27 986.13 592.23 1002.72 598.01 1006.66 597.23 1009.3 600.65 1020.88 606.7 1021.67 596.17 1036.15 591.17 1059.31 602.49 1070.38 596.6 1069.64 595.55 1072.86 593.63 1073.81 594.6 1075.37 593.8 1068 582.22 1071.94 562.22 1071.94 553.27 1064.05 556.69 1069.05 546.69 1080.37 537.21 1089.85 517.21 1074.58 510.36 1069.84 506.41 1042.46 478.78 1032.72 480.62 1027.99 488.78 1011.4 495.88 998.5 486.67 997.19 503.78 967.18 491.94 963.5 499.04 981.66 519.05 989.82 540.11 971.92 578.27"/>
    <polygon class="cls-2" points="1069.58 504.31 1069.31 499.57 1072.47 496.15 1075.89 502.2 1075.1 508 1069.58 504.31"/>
    <polygon class="cls-2" points="1081.95 536.68 1092.21 514.84 1076.16 508.52 1078 502.2 1075.1 496.41 1076.68 494.83 1075.89 482.72 1080.1 479.3 1079.58 474.56 1084.58 472.46 1088.79 463.77 1087.21 462.72 1089.32 461.67 1092.48 449.03 1098.53 446.66 1101.95 450.35 1105.64 431.13 1114.06 433.24 1128.01 446.13 1144.07 438.5 1152.23 451.66 1153.28 459.3 1149.07 462.72 1158.02 492.2 1155.65 493.78 1152.49 490.09 1150.65 489.83 1149.07 494.3 1131.96 501.41 1129.86 500.36 1145.12 524.84 1135.12 534.05 1136.17 540.63 1120.12 541.95 1113.01 540.63 1110.38 543.26 1098.79 533.79 1081.95 536.68"/>
    <polygon class="cls-2" points="1309.11 580.64 1307.53 580.64 1291.21 578.01 1275.95 590.38 1249.62 591.17 1248.83 587.75 1242.25 585.38 1245.67 583.28 1238.57 578.54 1235.67 581.96 1228.83 577.22 1229.09 574.33 1220.67 569.85 1216.46 561.43 1225.14 558.79 1226.46 552.21 1239.62 529.84 1256.99 530.1 1274.76 519.71 1292 537.21 1297.79 555.11 1303.06 561.69 1315.96 557.74 1314.64 565.9 1306.74 568.53 1309.11 580.64"/>
    <polygon class="cls-2" points="1232.78 513.26 1222.25 508 1209.09 513 1203.03 509.05 1195.66 510.89 1190.4 503.25 1185.13 503.52 1176.71 496.41 1176.18 502.2 1172.76 503.52 1171.18 500.62 1173.55 496.94 1157.76 487.73 1150.91 463.25 1154.86 459.56 1153.28 450.87 1155.12 447.71 1167.76 443.5 1169.87 436.39 1184.34 434.29 1189.87 439.55 1226.72 438.5 1237.78 458.77 1232.25 466.67 1243.57 491.15 1231.99 507.2 1232.78 513.26"/>
    <polygon class="cls-2" points="1331.74 178.31 1322.02 206.34 1324.39 216.62 1316.74 221.33 1308.84 214.24 1313.59 205.81 1307.28 201.06 1294.38 207.4 1302.53 220.8 1308.59 222.12 1313.84 235.29 1302.28 234.23 1295.41 253.97 1306.47 264.77 1281.73 263.71 1281.73 269.52 1294.63 273.71 1294.91 281.08 1275.14 279.52 1265.93 260.03 1251.72 249.25 1273.05 252.66 1291.48 247.91 1294.1 237.92 1289.38 226.08 1236.47 214.24 1227.26 222.92 1227.51 238.45 1235.94 241.88 1234.35 258.19 1243.57 270.83 1251.72 294.79 1263.58 306.88 1249.62 342.7 1262.24 348.23 1253.56 352.94 1250.68 357.16 1255.68 359 1251.47 366.65 1252.25 374.27 1256.46 379.02 1253.31 379.8 1254.62 384.02 1264.26 402.95 1287.54 404.46 1289.94 418.58 1311.55 431.99 1305.02 441.48 1299.82 439.44 1299.99 442.59 1305.96 451.36 1322.88 442.59 1332.93 454.15 1348.96 461.97 1365.71 455.63 1377.24 462.69 1395.87 460.1 1402.93 482.8 1394 498.07 1402.93 495.84 1392.13 506.64 1398.83 515.19 1393.24 532.33 1426.52 542.99 1427.14 542.85 1427.14 219.97 1427.13 178.3 1406.42 178.31 1341.31 178.31 1340.25 178.3 1339.22 178.31 1331.74 178.31"/>
    <polygon class="cls-2" points="1309.64 182.91 1312.01 193.17 1314.9 193.7 1318.33 188.96 1318.85 182.64 1309.64 182.91"/>
    <polygon class="cls-2" points="1070.73 595.7 1071.07 596.09 1073.09 594.97 1072.59 594.54 1070.73 595.7"/>
    <polygon class="cls-2" points="1103.53 543.46 1103.41 545.6 1105.59 547.13 1104.29 543.61 1103.53 543.46"/>
  </g>
  <g>
    <polygon class="cls-3" points="852.41 640.11 865.58 618.52 857.68 612.21 886.7 569.28 910.85 580.09 910.32 588.51 900.85 592.73 890.84 610.1 887.16 611.15 884 628 880.32 630.11 875.05 643.79 852.41 640.11"/>
    <polygon class="cls-4" points="877.68 642.74 881.37 632.21 887.16 629.05 889.79 612.73 894 611.68 902.95 593.25 912.43 590.1 911.9 577.99 886.63 566.93 890.32 550.09 907.69 547.45 967.71 576.41 984.03 590.62 1002.98 597.47 1003.51 603.25 1008.24 599.57 1022.46 606.94 1018.77 616.94 989.82 619.05 968.23 640.11 975.6 653.27 956.12 665.38 943.49 668.53 936.12 678.01 905.06 667.48 889.27 673.8 877.68 642.74"/>
    <polygon class="cls-3" points="1004.05 596.37 1006.1 596.56 1007.59 598.23 1004.24 601.4 1004.05 596.37"/>
    <polygon class="cls-4" points="971.92 575.88 986.13 589.83 1002.72 595.62 1006.66 594.83 1009.3 598.25 1020.88 604.31 1021.67 593.78 1036.15 588.78 1059.31 600.1 1070.38 594.21 1069.64 593.16 1072.86 591.24 1073.81 592.2 1075.37 591.41 1068 579.83 1071.94 559.82 1071.94 550.87 1064.05 554.29 1069.05 544.29 1080.37 534.82 1089.85 514.81 1074.58 507.97 1069.84 504.02 1042.46 476.38 1032.72 478.22 1027.99 486.38 1011.4 493.49 998.5 484.28 997.19 501.39 967.18 489.54 963.5 496.65 981.66 516.65 989.82 537.71 971.92 575.88"/>
    <polygon class="cls-3" points="963.76 467.17 966.13 467.17 978.24 467.43 983.76 472.7 992.45 467.69 1024.57 474.01 1036.67 468.49 1025.88 464.27 1042.46 452.43 1037.2 443.21 1028.51 444.79 1031.67 424.52 1024.83 413.21 1022.2 394.78 1014.3 392.41 1030.88 374.78 1015.35 367.14 1028.51 356.09 1011.93 352.4 1003.24 362.4 994.55 376.88 999.56 392.68 991.92 402.68 1007.72 407.42 1004.03 415.84 1007.19 421.1 1002.19 429.53 986.66 430.32 989.03 440.06 977.45 442.95 998.24 455.59 963.76 467.17"/>
    <polygon class="cls-3" points="990.08 406.1 979.03 411.63 976.13 404.52 968.76 403.99 966.65 400.31 979.82 392.41 986.4 394.52 990.08 406.1"/>
    <polygon class="cls-3" points="977.71 413.47 974.55 405.84 966.65 405.84 964.55 399.78 978.24 391.36 971.92 388.73 963.76 392.94 963.76 397.15 958.23 398.47 951.12 394.25 944.8 405.05 950.33 413.47 933.75 423.73 941.38 434.53 969.28 435.84 977.71 413.47"/>
    <polygon class="cls-3" points="1069.58 501.91 1069.31 497.18 1072.47 493.75 1075.89 499.81 1075.1 505.6 1069.58 501.91"/>
    <polygon class="cls-3" points="1043.78 475.07 1068.26 500.33 1067.47 496.12 1072.21 491.91 1075.37 491.91 1074.05 486.38 1069.58 484.28 1072.21 480.07 1062.2 473.22 1057.2 475.07 1051.41 471.91 1043.78 475.07"/>
    <polygon class="cls-3" points="1071.94 483.75 1075.1 485.07 1074.32 480.33 1077.74 477.17 1077.74 470.85 1083 469.27 1087.48 462.17 1084.84 460.32 1088 458.48 1090.37 450.59 1084.84 446.64 1073 449.53 1075.1 456.11 1068.79 462.95 1070.89 455.59 1068.26 449.27 1065.1 458.48 1054.31 470.33 1057.2 472.7 1063.26 471.38 1074.32 478.75 1071.94 483.75"/>
    <polygon class="cls-3" points="1067.21 550.61 1070.1 544.56 1080.1 536.13 1092.74 535.08 1098 533.5 1102.48 537.45 1102.21 544.03 1110.9 549.03 1108.54 557.46 1100.64 553.77 1094.84 563.51 1088.53 551.92 1083.53 560.88 1074.84 559.03 1073.79 548.77 1067.21 550.61"/>
    <path class="cls-3" d="M1125.64,547.73,1113,549.56l-2.64,8.69-8.69-2.11-6.83,10-6.05-10.8-5.27,7.11-9.47-2.36-3.94,19,6.83,12.36,11.33-7.36,15.27,7.11,4.47,18.16,23.41,24.74,12.91,6.06,4.75,7.11,7.11.53,9.47,10.53,7.11,16.85-5.8,11,3.16,4.75,8.42-9.21,1.33-7.11,4.47-3.42-6.05-10,3.94-12.66,15,8.69,4.2-3.94-32.37-21L1172,628l-21.32-6.58L1143,602.73l-14.22-11.86-2.11-17.63,16.32-5.78-.53-12.38-12.91-3.42Zm1.72,45.58-.76,2.8-2,.55-.43-2.82Zm4.59,36.07.64,1.74-2.54.41,0-1.17.76-.94Z"/>
    <polygon class="cls-3" points="1164.86 685.38 1158.81 698.54 1161.44 705.39 1158.02 711.44 1147.75 708.55 1144.6 702.49 1131.17 695.12 1125.9 694.86 1125.64 686.7 1144.33 688.28 1164.86 685.38"/>
    <polygon class="cls-3" points="1095.37 606.94 1094.06 620.89 1089.05 631.68 1084.05 626.68 1083 612.47 1092.48 610.89 1095.37 606.94"/>
    <polygon class="cls-3" points="1075.37 637.21 1076.42 638.26 1081.16 640.63 1088.26 635.11 1094.84 643.27 1093 651.16 1090.9 666.69 1084.58 665.38 1073.79 670.12 1078 656.16 1076.95 642.74 1075.37 637.21"/>
    <polygon class="cls-5" points="1081.95 534.29 1092.21 512.44 1076.16 506.13 1078 499.81 1075.1 494.02 1076.68 492.44 1075.89 480.33 1080.1 476.91 1079.58 472.17 1084.58 470.06 1088.79 461.38 1087.21 460.32 1089.32 459.27 1092.48 446.64 1098.53 444.27 1101.95 447.95 1105.64 428.74 1114.06 430.84 1128.01 443.74 1144.07 436.11 1152.23 449.27 1153.28 456.9 1149.07 460.32 1158.02 489.81 1155.65 491.39 1152.49 487.7 1150.65 487.44 1149.07 491.91 1131.96 499.02 1129.86 497.97 1145.12 522.45 1135.12 531.66 1136.17 538.24 1120.12 539.55 1113.01 538.24 1110.38 540.87 1098.79 531.4 1081.95 534.29"/>
    <polygon class="cls-3" points="1105.38 426.63 1101.69 418.47 1104.06 402.68 1108.54 403.2 1123.27 389.25 1124.06 395.31 1120.9 401.62 1120.38 403.99 1128.27 408.73 1120.38 412.68 1114.85 417.42 1114.33 426.37 1117.22 429 1105.38 426.63"/>
    <polygon class="cls-3" points="1116.43 420.31 1117.48 427.69 1122.75 428.47 1122.22 431.63 1127.75 435.58 1134.59 431.9 1135.38 425.31 1137.75 420.58 1138.28 412.94 1131.96 414.79 1130.91 418.47 1129.33 414.52 1125.9 419 1126.43 425.58 1131.43 427.16 1132.22 432.42 1126.43 430.58 1123.27 431.9 1123.54 427.42 1123.27 420.58 1116.43 420.31"/>
    <polygon class="cls-3" points="1002.75 645.14 1003.68 645.14 1013.55 641.79 1013.73 645.32 1016.34 648.3 1008.71 654.07 1002.75 645.14"/>
    <polygon class="cls-3" points="1021.36 642.53 1022.67 647 1026.39 648.12 1026.95 643.84 1021.36 642.53"/>
    <polygon class="cls-3" points="988.98 651.1 985.26 654.63 988.05 656.31 991.21 653.89 988.98 651.1"/>
    <polygon class="cls-3" points="1133.01 500.86 1146.96 522.18 1152.23 523.76 1160.12 518.76 1175.66 521.39 1183.03 521.13 1188.29 515.08 1193.82 509.55 1189.08 502.7 1185.13 503.23 1177.23 496.39 1177.5 500.33 1172.23 502.97 1169.87 498.23 1171.44 495.6 1160.39 487.7 1158.81 487.7 1159.07 491.12 1155.91 492.7 1151.96 489.28 1150.39 489.81 1149.6 493.49 1133.01 500.86"/>
    <polygon class="cls-3" points="1103.53 538.24 1103.53 539.92 1104.87 540.44 1106.58 545.16 1111.96 548.24 1126.17 546.4 1130.64 550.87 1144.33 554.29 1153.02 557.98 1156.7 554.03 1166.18 553.24 1171.44 547.72 1179.08 533.24 1177.23 523.76 1161.7 520.34 1154.07 525.34 1145.91 523.5 1136.96 532.18 1137.75 539.55 1118.8 541.4 1114.06 539.82 1110.9 542.19 1103.53 538.24"/>
    <polygon class="cls-3" points="1143.81 556.4 1143.81 567.99 1146.17 569.04 1141.17 570.88 1161.44 571.93 1162.76 566.93 1165.92 560.61 1174.08 555.88 1170.65 550.61 1166.97 554.82 1157.49 555.61 1153.28 559.03 1143.81 556.4"/>
    <polygon class="cls-3" points="1140.38 572.19 1162.49 572.99 1163.81 567.19 1167.49 561.14 1175.66 556.93 1185.13 565.09 1198.29 565.62 1204.35 572.99 1201.19 578.25 1191.98 575.88 1177.23 575.09 1171.71 579.3 1167.49 575.09 1166.18 584.3 1184.61 601.67 1184.34 605.63 1190.92 613.52 1175.39 602.47 1166.71 602.47 1165.92 596.94 1158.55 590.88 1155.91 576.67 1151.44 574.56 1146.96 582.99 1143.28 577.99 1140.38 572.19"/>
    <polygon class="cls-3" points="1168.22 577.48 1167.57 583.53 1186 601.21 1185.62 605.12 1190.18 610.89 1196.88 613.96 1201.63 601.4 1207.87 598.23 1205.73 592.84 1204.05 586.88 1205.26 579.9 1192.05 577.2 1177.53 576.46 1171.94 580.92 1168.22 577.48"/>
    <polygon class="cls-3" points="1196.06 615.23 1198.29 614.84 1202.77 602.99 1207.64 599.7 1217.9 607.73 1216.06 615.63 1211.85 612.6 1208.56 618.66 1210.14 622.6 1208.95 625.76 1196.06 615.23"/>
    <polygon class="cls-3" points="1199.74 564.03 1205.93 572.99 1203.16 577.46 1206.45 578.78 1205.53 586.28 1209.22 597.86 1218.96 606.68 1217.64 615.23 1223.83 621.81 1229.22 618.26 1243.43 614.44 1244.88 612.87 1243.04 607.34 1248.57 601.15 1239.49 592.6 1243.04 585.09 1239.88 582.59 1242.65 580.75 1239.23 577.99 1236.33 581.28 1226.33 575.09 1227.38 572.46 1219.61 569.04 1214.88 560.35 1206.85 559.16 1199.74 564.03"/>
    <polygon class="cls-3" points="1221.72 660.51 1209.09 647.35 1212.77 629.05 1210.8 625.5 1211.19 622.08 1209.87 618.79 1212.24 614.18 1223.7 622.47 1222.38 624.45 1223.3 633.66 1230.27 640.63 1230.93 646.43 1221.72 660.51"/>
    <polygon class="cls-3" points="1231.59 639.32 1224.35 633.13 1223.43 624.97 1225.4 622.21 1230.01 619.31 1243.17 616.02 1252.12 624.05 1251.07 630.24 1243.3 633.79 1238.43 638.79 1231.59 639.32"/>
    <polygon class="cls-3" points="1222.76 661.33 1236.16 678.64 1245.09 676.59 1262.96 678.27 1259.42 681.99 1246.21 679.2 1235.04 685.9 1243.98 692.79 1244.53 702.84 1251.79 699.49 1255.14 708.61 1258.49 700.42 1265.57 707.87 1257.75 688.69 1262.96 693.34 1268.36 689.81 1262.03 685.16 1266.12 680.88 1275.62 685.9 1272.08 675.85 1260.73 671.75 1253.47 669.71 1256.07 667.48 1272.45 673.99 1277.85 680.32 1279.71 676.04 1271.89 669.33 1265.57 668.96 1262.96 665.42 1255.14 663.75 1256.45 660.77 1260.17 663.38 1261.29 661.15 1249.75 648.86 1249.93 642.9 1253.65 639.74 1256.26 646.07 1264.63 651.1 1259.24 645.88 1261.66 644.77 1267.43 649.79 1263.14 643.28 1266.31 642.53 1272.64 645.88 1267.43 640.86 1261.84 637.14 1269.85 635.65 1270.03 632.85 1273.2 631.92 1289.21 630.99 1293.48 624.48 1292.55 616.47 1287.53 617.22 1289.95 622.06 1271.15 626.34 1268.36 623.17 1253.09 629.5 1252.35 631.18 1244.53 634.9 1239.51 639.92 1231.88 640.67 1232.25 646.81 1222.76 661.33"/>
    <polygon class="cls-3" points="1390.83 702.09 1391.76 701.35 1394.74 697.63 1397.9 697.63 1396.97 693.53 1408.51 689.43 1415.4 682.74 1411.49 691.11 1414.66 697.25 1408.88 697.82 1402.56 706 1393.62 707.68 1390.83 702.09"/>
    <polygon class="cls-3" points="1272.83 719.4 1275.24 719.4 1285.67 721.64 1302.42 718.66 1305.59 721.64 1309.31 719.03 1310.05 723.68 1302.24 724.62 1291.44 730.01 1287.71 724.43 1274.32 724.8 1272.83 719.4"/>
    <polygon class="cls-3" points="1172.23 549.56 1176.27 555.46 1185.92 563.25 1198.29 564.03 1205.4 557.46 1214.35 558.25 1219.35 556.4 1223.56 555.61 1224.88 549.03 1237.51 528.5 1228.04 523.76 1213.3 522.71 1206.45 528.5 1195.13 531.4 1196.19 535.61 1185.39 536.66 1181.18 534.29 1172.23 549.56"/>
    <polygon class="cls-3" points="1179.34 523.24 1180.92 532.18 1186.45 534.55 1194.21 533.9 1193.56 529.82 1204.88 527.18 1212.51 521.13 1229.36 521.92 1231.99 512.71 1221.98 507.44 1209.09 512.71 1203.3 508.76 1195.13 510.47 1184.87 522.45 1179.34 523.24"/>
    <polygon class="cls-3" points="1292.53 614.84 1284.89 615.37 1287.53 621.42 1271.73 624.58 1268.58 621.16 1253.84 628 1253.57 623.26 1245.67 615.37 1247.52 614.05 1245.15 607.99 1250.68 601.94 1241.46 592.46 1244.1 586.41 1247.25 586.94 1247.25 590.36 1275.95 589.57 1291.74 577.99 1308.32 580.36 1309.11 586.15 1302.27 590.36 1301.21 602.2 1308.85 607.99 1292.53 614.84"/>
    <polygon class="cls-4" points="1309.11 578.25 1307.53 578.25 1291.21 575.62 1275.95 587.99 1249.62 588.78 1248.83 585.36 1242.25 582.99 1245.67 580.88 1238.57 576.14 1235.67 579.57 1228.83 574.83 1229.09 571.93 1220.67 567.46 1216.46 559.03 1225.14 556.4 1226.46 549.82 1239.62 527.45 1256.99 527.71 1274.76 517.31 1292 534.82 1297.79 552.72 1303.06 559.3 1315.96 555.35 1314.64 563.51 1306.74 566.14 1309.11 578.25"/>
    <polygon class="cls-3" points="1309.38 609.58 1307.53 609.58 1294.11 615.89 1295.16 624.84 1290.68 631.68 1291.48 634.32 1298.85 631.95 1293.58 640.9 1305.42 631.42 1306.74 623.53 1323.06 621.68 1324.12 616.68 1313.06 615.89 1309.38 609.58"/>
    <polygon class="cls-4" points="1232.78 510.87 1222.25 505.6 1209.09 510.6 1203.03 506.65 1195.66 508.5 1190.4 500.86 1185.13 501.13 1176.71 494.02 1176.18 499.81 1172.76 501.13 1171.18 498.23 1173.55 494.55 1157.76 485.33 1150.91 460.85 1154.86 457.17 1153.28 448.48 1155.12 445.32 1167.76 441.11 1169.87 434 1184.34 431.9 1189.87 437.16 1226.72 436.11 1237.78 456.38 1232.25 464.27 1243.57 488.75 1231.99 504.81 1232.78 510.87"/>
    <polygon class="cls-3" points="1197.26 435.83 1222.57 435.09 1221.45 425.42 1207.31 421.5 1208.8 428.02 1198.84 428.48 1198.47 431.56 1203.21 432.86 1197.26 435.83"/>
    <polygon class="cls-3" points="1208.05 418.99 1209.17 419.18 1223.32 424.39 1224.24 434.81 1228.9 435.37 1231.69 439.28 1241.93 440.02 1247.7 431.28 1246.95 424.58 1253.47 412.66 1241.56 405.22 1212.89 406.15 1206.38 411.36 1208.05 418.99"/>
    <polygon class="cls-3" points="1205.63 409.87 1207.49 408.94 1212.7 404.29 1241.74 403.54 1253.09 410.24 1262.59 402.43 1254.4 384.37 1232.06 379.9 1227.97 381.95 1229.64 392.94 1224.43 395.73 1214.75 386.42 1206.19 396.1 1205.63 409.87"/>
    <polygon class="cls-3" points="1130.38 374.25 1141.7 408.2 1142.23 424.79 1151.17 425.58 1154.07 414 1168.29 410.05 1172.23 379.51 1187.76 361.62 1172.23 346.87 1175.66 316.08 1195.66 296.07 1194.08 282.38 1207.24 273.17 1199.87 245.27 1183.29 230.79 1180.92 241.58 1173.02 243.43 1155.39 275.28 1151.17 292.91 1154.07 302.91 1143.81 305.81 1140.38 335.03 1143.02 344.5 1139.6 361.35 1130.38 374.25"/>
    <polygon class="cls-3" points="1130.91 371.09 1132.22 370.56 1138.28 360.3 1140.91 345.56 1138.02 332.92 1141.7 303.97 1151.7 301.6 1149.07 293.7 1154.33 273.43 1171.18 242.63 1180.39 240.53 1182.24 228.69 1188.82 227.37 1198.82 235.26 1206.19 233.95 1209.09 217.89 1217.77 212.89 1226.2 218.42 1231.2 214.47 1224.88 209.47 1228.57 206.31 1213.04 199.73 1203.03 212.37 1196.71 208.15 1182.5 218.95 1173.29 221.31 1168.81 234.74 1160.12 233.16 1149.6 242.9 1158.02 245 1143.54 274.22 1133.8 294.23 1093.79 325.82 1090.9 368.98 1103.01 383.2 1119.85 372.67 1126.43 359.51 1130.91 371.09"/>
    <polygon class="cls-3" points="1209.35 272.91 1200.93 244.22 1184.87 230.26 1189.34 228.95 1199.35 236.58 1207.77 235 1210.14 219.21 1218.56 214.73 1225.67 220.53 1225.93 237.11 1234.36 240.79 1233.04 255.8 1242.52 270.8 1251.2 293.97 1261.47 304.49 1246.2 342.13 1213.3 356.09 1202.24 347.4 1200.14 331.87 1195.92 317.66 1217.24 284.23 1214.35 274.49 1209.35 272.91"/>
    <polygon class="cls-3" points="1276.73 516.15 1287.16 512.43 1300.19 518.01 1303.54 525.09 1314.33 531.79 1312.1 538.86 1300.56 553.38 1293.86 534.02 1276.73 516.15"/>
    <polygon class="cls-3" points="1315.82 553.38 1303.54 557.47 1302.05 553.75 1313.21 539.97 1316.56 530.67 1304.65 523.6 1300.93 516.15 1287.9 510.19 1274.13 515.41 1257 525.46 1238.02 525.83 1231.32 522.85 1234.3 512.43 1234.3 505.36 1245.09 488.98 1238.02 472.97 1249.56 467.39 1300.93 464.03 1305.4 451.01 1322.52 442.07 1331.46 453.24 1348.21 461.8 1366.08 455.47 1376.13 462.17 1395.11 459.94 1400.7 481.53 1391.39 496.42 1381.34 507.22 1363.84 525.46 1374.27 536.25 1390.27 528.44 1386.92 534.76 1375.38 541.09 1360.86 554.87 1355.28 542.58 1342.62 545.19 1352.67 531.41 1338.53 534.76 1330.71 529.55 1322.15 529.92 1315.82 553.38"/>
    <polygon class="cls-3" points="1304.47 448.21 1300 462.17 1249.18 464.97 1237.83 471.11 1233.92 464.41 1239.32 456.59 1230.95 440.77 1243.23 441.33 1249.37 432.39 1248.82 424.95 1256.07 410.99 1264.82 402.24 1286.6 404.47 1288.28 416.57 1309.12 429.6 1304.28 437.05 1297.02 433.88 1298.33 439.84 1304.47 448.21"/>
    <polygon class="cls-3" points="1253.18 382.94 1231.99 378.07 1227.91 380.44 1227.91 375.83 1224.09 376.49 1218.04 365.56 1233.7 356.61 1253.44 356.75 1249.62 362.4 1245.81 363.99 1252.12 375.96 1253.18 382.94"/>
    <polygon class="cls-3" points="1185.66 386.62 1183.55 386.88 1180.66 393.2 1182.24 402.15 1186.71 394.52 1185.66 386.62"/>
    <polygon class="cls-3" points="1209.35 378.46 1211.19 384.78 1219.09 375.3 1215.67 373.72 1209.35 378.46"/>
    <g>
      <polygon class="cls-3" points="1212.24 368.98 1212.51 372.41 1215.4 371.62 1216.46 368.46 1212.24 368.98"/>
      <polygon class="cls-4" points="1331.74 175.92 1322.02 203.95 1324.39 214.22 1316.74 218.94 1308.84 211.85 1313.59 203.42 1307.28 198.67 1294.38 205.01 1302.53 218.41 1308.59 219.72 1313.84 232.9 1302.28 231.84 1295.41 251.58 1306.47 262.38 1281.73 261.32 1281.73 267.13 1294.63 271.32 1294.91 278.69 1275.14 277.12 1265.93 257.64 1251.72 246.86 1273.05 250.26 1291.48 245.52 1294.1 235.52 1289.38 223.69 1236.47 211.85 1227.26 220.53 1227.51 236.05 1235.94 239.49 1234.35 255.79 1243.57 268.44 1251.72 292.39 1263.58 304.49 1249.62 340.31 1262.24 345.83 1253.56 350.55 1250.68 354.77 1255.68 356.61 1251.47 364.26 1252.25 371.88 1256.46 376.63 1253.31 377.41 1254.62 381.63 1264.26 400.56 1287.54 402.06 1289.94 416.19 1311.55 429.59 1305.02 439.08 1299.82 437.05 1299.99 440.2 1305.96 448.97 1322.88 440.2 1332.93 451.76 1348.96 459.58 1365.71 453.24 1377.24 460.3 1395.87 457.71 1402.93 480.4 1394 495.68 1402.93 493.44 1392.13 504.25 1398.83 512.79 1393.24 529.93 1426.52 540.6 1427.14 540.46 1427.14 217.57 1427.13 175.91 1406.42 175.92 1341.31 175.92 1340.25 175.91 1339.22 175.92 1331.74 175.92"/>
      <polygon class="cls-4" points="1309.64 180.51 1312.01 190.78 1314.9 191.31 1318.33 186.57 1318.85 180.25 1309.64 180.51"/>
      <polygon class="cls-3" points="1382.83 586.95 1368.87 590.63 1350.69 608.25 1345.69 614.31 1325.17 616.68 1324.11 621.68 1335.17 622.99 1323.86 626.95 1325.7 630.36 1305.16 633.51 1294.38 642.23 1293.07 653 1303.84 649.85 1305.69 667.75 1313.06 676.17 1333.61 689.33 1353.85 695.91 1362.03 688.8 1362.03 680.11 1381.77 679.58 1384.92 685.11 1404.41 681.7 1413.34 663.81 1423.34 666.43 1427.14 657.44 1427.14 586.95 1382.83 586.95"/>
    </g>
    <polygon class="cls-3" points="1130.75 630.86 1130.77 630.5 1131.11 630.05 1131.54 630.05 1131.72 630.68 1130.75 630.86"/>
    <polygon class="cls-3" points="1124.97 594.41 1125.23 595.64 1126.3 595.33 1126.49 594.08 1124.97 594.41"/>
    <polygon class="cls-3" points="1070.73 593.31 1071.07 593.7 1073.09 592.57 1072.59 592.14 1070.73 593.31"/>
    <polygon class="cls-3" points="1103.53 541.07 1103.41 543.21 1105.59 544.74 1104.29 541.22 1103.53 541.07"/>
    <polygon class="cls-3" points="1145.37 731.57 1146.93 731.07 1148.86 731.98 1151 732.47 1153.19 734.81 1152.01 735.89 1149.36 734.06 1149.16 732.44 1148.28 731.76 1147.15 732.56 1145.37 731.57"/>
  </g>
  <text class="cls-6" transform="translate(1098.83 474.01)">ГЕРМАНИЯ</text>
  <text class="cls-6" transform="translate(1188.26 486.12)">ПОЛЬША</text>
  <text class="cls-6" transform="translate(1244.33 541.07)">РУМЫНИЯ</text>
  <text class="cls-6" transform="translate(915.96 616.47)">ИСПАНИЯ</text>
  <text class="cls-6" transform="translate(1014.61 547.45)">ФРАНЦИЯ</text>
  <path class="cls-7" d="M1293.91,555.32v-6l-6.48-3.13v-3.89l-3.56,2.14-2.37,1.42v-3.56l-6.48,3.89v.68a.4.4,0,0,0-.15,0h-3.28a.41.41,0,0,0-.41.41v1.64h-.87v.58a2.92,2.92,0,0,0-1.92,2.74v3.14h-1v2.1h28.51v-2.1Zm-18.89,0h-.73v-3.14a2.92,2.92,0,0,0-1.92-2.74v-.58H1272v-1.23h2.87a.42.42,0,0,0,.15,0Zm5.48-.58h-2.09v-2.05h2.09Zm0-3.63h-2.09v-2.05h2.09Zm3.38,3.63h-2.09v-2.05h2.09Zm0-3.63h-2.09v-2.05h2.09Zm3,3.63h-2.09v-2.05h2.09Zm0-3.63h-2.09v-2.05h2.09Zm3,3.63h-2.09v-2.05H1290Z"/>
  <path class="cls-7" d="M1285.41,574.31v-6l-6.48-3.13v-3.89l-3.56,2.14-2.37,1.42v-3.56l-6.48,3.89v.68a.4.4,0,0,0-.15,0h-3.28a.41.41,0,0,0-.41.41v1.64h-.87v.58a2.92,2.92,0,0,0-1.92,2.74v3.14h-1v2.1h28.51v-2.1Zm-18.89,0h-.73v-3.14a2.92,2.92,0,0,0-1.92-2.74v-.58h-.38v-1.23h2.87a.42.42,0,0,0,.15,0Zm5.48-.58h-2.09v-2.05H1272Zm0-3.63h-2.09v-2.05H1272Zm3.38,3.63h-2.09v-2.05h2.09Zm0-3.63h-2.09v-2.05h2.09Zm3,3.63h-2.09v-2.05h2.09Zm0-3.63h-2.09v-2.05h2.09Zm3,3.63h-2.09v-2.05h2.09Z"/>
  <path class="cls-7" d="M1260.88,562.4v-6l-6.48-3.13v-3.89l-3.56,2.14-2.37,1.42v-3.56l-6.48,3.89v.68a.4.4,0,0,0-.15,0h-3.28a.41.41,0,0,0-.41.41v1.64h-.87v.58a2.92,2.92,0,0,0-1.92,2.74v3.14h-1v2.1h28.51v-2.1Zm-18.89,0h-.73v-3.14a2.92,2.92,0,0,0-1.92-2.74v-.58H1239v-1.23h2.87a.42.42,0,0,0,.15,0Zm5.48-.58h-2.09v-2.05h2.09Zm0-3.63h-2.09v-2.05h2.09Zm3.38,3.63h-2.09v-2.05h2.09Zm0-3.63h-2.09v-2.05h2.09Zm3,3.63h-2.09v-2.05h2.09Zm0-3.63h-2.09v-2.05h2.09Zm3,3.63h-2.09v-2.05h2.09Z"/>
  <path class="cls-7" d="M1226.66,459.68v-6l-6.48-3.13v-3.89l-3.56,2.14-2.37,1.42v-3.56l-6.48,3.89v.68a.4.4,0,0,0-.15,0h-3.28a.41.41,0,0,0-.41.41v1.64H1203v.58a2.92,2.92,0,0,0-1.92,2.74v3.14h-1v2.1h28.51v-2.1Zm-18.89,0H1207v-3.14a2.92,2.92,0,0,0-1.92-2.74v-.58h-.38V452h2.87a.42.42,0,0,0,.15,0Zm5.48-.58h-2.09V457h2.09Zm0-3.63h-2.09v-2.05h2.09Zm3.38,3.63h-2.09V457h2.09Zm0-3.63h-2.09v-2.05h2.09Zm3,3.63h-2.09V457h2.09Zm0-3.63h-2.09v-2.05h2.09Zm3,3.63h-2.09V457h2.09Z"/>
  <path class="cls-7" d="M1191.39,467.24v-6l-6.48-3.13V454.2l-3.56,2.14-2.37,1.42V454.2l-6.48,3.89v.68a.4.4,0,0,0-.15,0h-3.28a.41.41,0,0,0-.41.41v1.64h-.87v.58a2.92,2.92,0,0,0-1.92,2.74v3.14h-1v2.1h28.51v-2.1Zm-18.89,0h-.73V464.1a2.92,2.92,0,0,0-1.92-2.74v-.58h-.38v-1.23h2.87a.42.42,0,0,0,.15,0Zm5.48-.58h-2.09v-2.05H1178Zm0-3.63h-2.09V461H1178Zm3.38,3.63h-2.09v-2.05h2.09Zm0-3.63h-2.09V461h2.09Zm3,3.63h-2.09v-2.05h2.09Zm0-3.63h-2.09V461h2.09Zm3,3.63h-2.09v-2.05h2.09Z"/>
  <path class="cls-7" d="M1135.94,515.11v-6l-6.48-3.13v-3.89l-3.56,2.14-2.37,1.42v-3.56l-6.48,3.89v.68a.4.4,0,0,0-.15,0h-3.28a.41.41,0,0,0-.41.41v1.64h-.87v.58a2.92,2.92,0,0,0-1.92,2.74v3.14h-1v2.1h28.51v-2.1Zm-18.89,0h-.73V512a2.92,2.92,0,0,0-1.92-2.74v-.58H1114v-1.23h2.87a.42.42,0,0,0,.15,0Zm5.48-.58h-2.09v-2.05h2.09Zm0-3.63h-2.09v-2.05h2.09Zm3.38,3.63h-2.09v-2.05h2.09Zm0-3.63h-2.09v-2.05h2.09Zm3,3.63h-2.09v-2.05H1129Zm0-3.63h-2.09v-2.05H1129Zm3,3.63h-2.09v-2.05H1132Z"/>
  <path class="cls-7" d="M1114.62,528.18v-6l-6.48-3.13v-3.89l-3.56,2.14-2.37,1.42v-3.56l-6.48,3.89v.68a.4.4,0,0,0-.15,0h-3.28a.41.41,0,0,0-.41.41v1.64H1091v.58a2.92,2.92,0,0,0-1.92,2.74v3.14h-1v2.1h28.51v-2.1Zm-18.89,0H1095V525a2.92,2.92,0,0,0-1.92-2.74v-.58h-.38v-1.23h2.87a.42.42,0,0,0,.15,0Zm5.48-.58h-2.09v-2.05h2.09Zm0-3.63h-2.09v-2.05h2.09Zm3.38,3.63h-2.09v-2.05h2.09Zm0-3.63h-2.09v-2.05h2.09Zm3,3.63h-2.09v-2.05h2.09Zm0-3.63h-2.09v-2.05h2.09Zm3,3.63h-2.09v-2.05h2.09Z"/>
  <path class="cls-7" d="M1065.18,520.61v-6l-6.48-3.13v-3.89l-3.56,2.14-2.37,1.42v-3.56l-6.48,3.89v.68a.4.4,0,0,0-.15,0h-3.28a.41.41,0,0,0-.41.41v1.64h-.87v.58a2.92,2.92,0,0,0-1.92,2.74v3.14h-1v2.1h28.51v-2.1Zm-18.89,0h-.73v-3.14a2.92,2.92,0,0,0-1.92-2.74v-.58h-.38v-1.23h2.87a.42.42,0,0,0,.15,0Zm5.48-.58h-2.09V518h2.09Zm0-3.63h-2.09v-2.05h2.09Zm3.38,3.63h-2.09V518h2.09Zm0-3.63h-2.09v-2.05h2.09Zm3,3.63h-2.09V518h2.09Zm0-3.63h-2.09v-2.05h2.09Zm3,3.63h-2.09V518h2.09Z"/>
  <path class="cls-7" d="M990.55,609.26v-6l-6.48-3.13v-3.89l-3.56,2.14-2.37,1.42v-3.56l-6.48,3.89v.68a.4.4,0,0,0-.15,0h-3.28a.41.41,0,0,0-.41.41v1.64h-.87v.58a2.92,2.92,0,0,0-1.92,2.74v3.14h-1v2.1h28.51v-2.1Zm-18.89,0h-.73v-3.14a2.92,2.92,0,0,0-1.92-2.74v-.58h-.38v-1.23h2.87a.42.42,0,0,0,.15,0Zm5.48-.58H975v-2.05h2.09Zm0-3.63H975V603h2.09Zm3.38,3.63h-2.09v-2.05h2.09Zm0-3.63h-2.09V603h2.09Zm3,3.63h-2.09v-2.05h2.09Zm0-3.63h-2.09V603h2.09Zm3,3.63h-2.09v-2.05h2.09Z"/>
  <g>
    <path class="cls-7" d="M1104.74,493.15v2.55h2.14v-2.55h.19v-.84h-2.43l-.12,0v.81l.12,0Z"/>
    <path class="cls-7" d="M1110.46,495.69v-2.55h.19v-.84h-2.43l-.12,0v.81l.12,0h.1v2.55Z"/>
    <path class="cls-7" d="M1098.92,496.14v-5.42h-9.74v15.16h23.25v-9.74Zm-5.48,6.16v3h-1.88v-3.66h1.88Zm0-1.53h-1.88v-1.92h1.88Zm0-2.79h-1.88v-1.92h1.88Zm0-3.09h-1.88V493h1.88Zm3.24,7.42v3h-1.88v-3.66h1.88Zm0-1.53h-1.88v-1.92h1.88Zm0-2.79h-1.88v-1.92h1.88Zm0-3.09h-1.88V493h1.88Zm4.76,8.62h-1.92v-1.88h1.92Zm0-3.24h-1.92v-1.88h1.92Zm3.1,3.24h-1.92v-1.88h1.92Zm0-3.24h-1.92v-1.88h1.92Zm2.79,3.24h-1.92v-1.88h1.92Zm0-3.24h-1.92v-1.88h1.92Zm2.79,3.24h-1.92v-1.88h1.92Zm0-3.24h-1.92v-1.88h1.92Z"/>
    <path class="cls-7" d="M1105.29,491.52c.05-1.63,2.8-1.88,2.8-1.88,4.16-.3,2.8-3.23,2.8-3.23a2,2,0,0,1-2.83,1.47c-2.88-.33-2.77,1.77-2.77,1.77Z"/>
  </g>
</svg>
