<svg id="" data-name="map_europe" xmlns="http://www.w3.org/2000/svg" viewBox="0 0 574.72 559.99 width="2000px">
  <defs>
    <style>
      .cls-1 {
        fill: #969696;
      }

      .cls-2 {
        fill: #cacac9;
      }

      .cls-3 {
        fill: #4c6c9c;
      }

      .cls-4 {
        fill: #da84b7;
      }

      .cls-5 {
        font-size: 8.2px;
        fill: #fff;
        font-family: OpenSans, OpenSans;
      }

      .cls-6 {
        fill: #dfe5ef;
      }
    </style>
  </defs>
  <title>map_europe_id2</title>
  <g>
    <polygon class="cls-1" points="25.27 469.23 28.95 458.7 34.74 455.54 37.38 439.22 41.59 438.17 50.54 419.74 60.02 416.58 59.49 404.47 34.22 393.42 37.9 376.57 55.28 373.94 115.29 402.89 131.61 417.11 150.56 423.95 151.09 429.74 155.83 426.06 170.04 433.43 166.36 443.43 137.4 445.54 115.82 466.6 123.19 479.76 103.71 491.87 91.08 495.02 83.71 504.5 52.65 493.97 36.85 500.29 25.27 469.23"/>
    <polygon class="cls-1" points="151.64 422.86 153.69 423.05 155.18 424.72 151.82 427.88 151.64 422.86"/>
    <polygon class="cls-1" points="119.5 402.37 133.72 416.32 150.3 422.11 154.25 421.32 156.88 424.74 168.46 430.8 169.25 420.27 183.73 415.27 206.9 426.58 217.97 420.7 217.22 419.64 220.45 417.73 221.39 418.69 222.95 417.9 215.58 406.32 219.53 386.31 219.53 377.36 211.63 380.78 216.64 370.78 227.95 361.31 237.43 341.3 222.16 334.45 217.43 330.51 190.05 302.87 180.31 304.71 175.57 312.87 158.99 319.98 146.09 310.76 144.77 327.88 114.77 316.03 111.08 323.13 129.24 343.14 137.4 364.2 119.5 402.37"/>
    <polygon class="cls-1" points="217.16 328.4 216.9 323.67 220.06 320.24 223.48 326.3 222.69 332.09 217.16 328.4"/>
    <polygon class="cls-1" points="229.53 360.78 239.8 338.93 223.74 332.61 225.58 326.3 222.69 320.5 224.27 318.93 223.48 306.82 227.69 303.39 227.16 298.66 232.17 296.55 236.38 287.86 234.8 286.81 236.9 285.76 240.06 273.12 246.12 270.75 249.54 274.44 253.22 255.22 261.65 257.33 275.6 270.23 291.65 262.59 299.81 275.76 300.87 283.39 296.66 286.81 305.61 316.29 303.24 317.87 300.08 314.19 298.24 313.92 296.66 318.4 279.55 325.5 277.44 324.45 292.71 348.93 282.7 358.15 283.76 364.73 267.7 366.04 260.59 364.73 257.96 367.36 246.38 357.88 229.53 360.78"/>
    <polygon class="cls-1" points="456.7 404.74 455.12 404.74 438.8 402.11 423.53 414.48 397.21 415.27 396.42 411.84 389.84 409.48 393.26 407.37 386.15 402.63 383.26 406.05 376.41 401.31 376.68 398.42 368.25 393.94 364.04 385.52 372.73 382.89 374.04 376.31 387.21 353.94 404.58 354.19 422.35 343.8 439.59 361.31 445.38 379.2 450.64 385.78 463.54 381.84 462.23 390 454.33 392.63 456.7 404.74"/>
    <polygon class="cls-1" points="380.36 337.35 369.83 332.09 356.67 337.09 350.62 333.14 343.25 334.98 337.98 327.35 332.72 327.61 324.3 320.5 323.77 326.3 320.35 327.61 318.77 324.71 321.14 321.03 305.34 311.82 298.5 287.34 302.44 283.65 300.87 274.97 302.71 271.81 315.34 267.6 317.45 260.49 331.93 258.38 337.46 263.65 374.31 262.59 385.36 282.86 379.83 290.76 391.15 315.24 379.57 331.3 380.36 337.35"/>
    <polygon class="cls-1" points="479.32 2.4 469.61 30.44 471.98 40.71 464.33 45.43 456.43 38.33 461.18 29.9 454.86 25.16 441.96 31.49 450.12 44.9 456.18 46.21 461.43 59.39 449.87 58.33 443 78.06 454.06 88.87 429.32 87.81 429.32 93.62 442.21 97.8 442.5 105.17 422.73 103.61 413.51 84.12 399.3 73.35 420.63 76.75 439.06 72.01 441.69 62.01 436.97 50.17 384.06 38.33 374.85 47.02 375.1 62.54 383.53 65.98 381.94 82.28 391.15 94.93 399.3 118.88 411.17 130.97 397.21 166.79 409.83 172.32 401.15 177.04 398.27 181.25 403.27 183.1 399.05 190.75 399.83 198.37 404.05 203.12 400.9 203.9 402.21 208.11 411.84 227.04 435.12 228.55 437.52 242.68 459.13 256.08 452.6 265.57 447.41 263.54 447.58 266.69 453.55 275.45 470.47 266.69 480.52 278.25 496.55 286.06 513.3 279.73 524.83 286.79 543.45 284.19 550.51 306.89 541.58 322.16 550.51 319.93 539.71 330.74 546.41 339.28 540.83 356.42 574.11 367.09 574.72 366.95 574.72 44.06 574.71 2.39 554.01 2.4 488.9 2.4 487.83 2.39 486.8 2.4 479.32 2.4"/>
    <polygon class="cls-1" points="457.23 7 459.59 17.27 462.49 17.79 465.91 13.06 466.44 6.74 457.23 7"/>
    <polygon class="cls-1" points="218.32 419.8 218.66 420.18 220.68 419.06 220.18 418.63 218.32 419.8"/>
    <polygon class="cls-1" points="251.11 367.56 251 369.69 253.18 371.22 251.88 367.71 251.11 367.56"/>
  </g>
  <g>
    <polygon class="cls-2" points="0 464.2 13.16 442.62 5.26 436.3 34.28 393.37 58.43 404.19 57.91 412.61 48.43 416.82 38.43 434.19 34.74 435.25 31.59 452.1 27.9 454.2 22.64 467.89 0 464.2"/>
    <polygon class="cls-3" points="25.27 466.83 28.95 456.3 34.74 453.15 37.38 436.83 41.59 435.77 50.54 417.35 60.02 414.19 59.49 402.08 34.22 391.02 37.9 374.18 55.28 371.55 115.29 400.5 131.61 414.71 150.56 421.56 151.09 427.35 155.83 423.67 170.04 431.04 166.36 441.04 137.4 443.14 115.82 464.2 123.19 477.36 103.71 489.47 91.08 492.63 83.71 502.11 52.65 491.58 36.85 497.89 25.27 466.83"/>
    <polygon class="cls-2" points="151.64 420.47 153.69 420.65 155.18 422.33 151.82 425.49 151.64 420.47"/>
    <polygon class="cls-3" points="119.5 399.97 133.72 413.93 150.3 419.71 154.25 418.93 156.88 422.35 168.46 428.4 169.25 417.87 183.73 412.87 206.9 424.19 217.97 418.3 217.22 417.25 220.45 415.33 221.39 416.3 222.95 415.5 215.58 403.92 219.53 383.92 219.53 374.97 211.63 378.39 216.64 368.39 227.95 358.91 237.43 338.9 222.16 332.06 217.43 328.11 190.05 300.48 180.31 302.32 175.57 310.48 158.99 317.58 146.09 308.37 144.77 325.48 114.77 313.64 111.08 320.74 129.24 340.75 137.4 361.81 119.5 399.97"/>
    <polygon class="cls-2" points="111.34 291.26 113.71 291.26 125.82 291.52 131.35 296.79 140.03 291.79 172.15 298.11 184.26 292.58 173.47 288.37 190.05 276.52 184.78 267.31 176.1 268.89 179.25 248.62 172.41 237.3 169.78 218.87 161.88 216.5 178.47 198.87 162.94 191.24 176.1 180.18 159.51 176.49 150.83 186.5 142.14 200.97 147.14 216.77 139.51 226.77 155.3 231.51 151.62 239.93 154.78 245.2 149.77 253.62 134.24 254.41 136.61 264.15 125.03 267.05 145.83 279.68 111.34 291.26"/>
    <polygon class="cls-2" points="137.67 230.19 126.61 235.72 123.72 228.61 116.35 228.09 114.24 224.4 127.4 216.5 133.98 218.61 137.67 230.19"/>
    <polygon class="cls-2" points="125.3 237.56 122.14 229.93 114.24 229.93 112.13 223.88 125.82 215.45 119.5 212.82 111.34 217.03 111.34 221.24 105.81 222.56 98.71 218.35 92.39 229.14 97.92 237.56 81.34 247.83 88.97 258.62 116.87 259.94 125.3 237.56"/>
    <polygon class="cls-2" points="217.16 326.01 216.9 321.27 220.06 317.85 223.48 323.9 222.69 329.69 217.16 326.01"/>
    <polygon class="cls-2" points="191.37 299.16 215.84 324.43 215.06 320.22 219.79 316 222.95 316 221.64 310.48 217.16 308.37 219.79 304.16 209.79 297.31 204.79 299.16 199 296 191.37 299.16"/>
    <polygon class="cls-2" points="219.53 307.85 222.69 309.16 221.9 304.42 225.32 301.26 225.32 294.94 230.59 293.37 235.06 286.26 232.43 284.42 235.59 282.57 237.96 274.68 232.43 270.73 220.58 273.62 222.69 280.21 216.37 287.05 218.48 279.68 215.84 273.36 212.69 282.57 201.89 294.42 204.79 296.79 210.84 295.47 221.9 302.84 219.53 307.85"/>
    <polygon class="cls-2" points="214.79 374.7 217.69 368.65 227.69 360.23 240.33 359.17 245.59 357.59 250.06 361.54 249.8 368.12 258.49 373.12 256.12 381.55 248.22 377.86 242.43 387.6 236.11 376.02 231.11 384.97 222.43 383.13 221.37 372.86 214.79 374.7"/>
    <path class="cls-2" d="M1125.64,547.73,1113,549.56l-2.64,8.69-8.69-2.11-6.83,10-6.05-10.8-5.27,7.11-9.47-2.36-3.94,19,6.83,12.36,11.33-7.36,15.27,7.11,4.47,18.16,23.41,24.74,12.91,6.06,4.75,7.11,7.11.53,9.47,10.53,7.11,16.85-5.8,11,3.16,4.75,8.42-9.21,1.33-7.11,4.47-3.42-6.05-10,3.94-12.66,15,8.69,4.2-3.94-32.37-21L1172,628l-21.32-6.58L1143,602.73l-14.22-11.86-2.11-17.63,16.32-5.78-.53-12.38-12.91-3.42Zm1.72,45.58-.76,2.8-2,.55-.43-2.82Zm4.59,36.07.64,1.74-2.54.41,0-1.17.76-.94Z" transform="translate(-852.41 -175.91)"/>
    <polygon class="cls-2" points="312.45 509.48 306.39 522.64 309.03 529.48 305.61 535.53 295.34 532.64 292.18 526.59 278.75 519.22 273.49 518.95 273.23 510.79 291.92 512.37 312.45 509.48"/>
    <polygon class="cls-2" points="242.96 431.04 241.64 444.99 236.64 455.78 231.64 450.78 230.59 436.56 240.06 434.98 242.96 431.04"/>
    <polygon class="cls-2" points="222.95 461.31 224 462.36 228.74 464.73 235.85 459.2 242.43 467.36 240.59 475.25 238.48 490.79 232.17 489.47 221.37 494.21 225.58 480.26 224.53 466.83 222.95 461.31"/>
    <polygon class="cls-4" points="229.53 358.38 239.8 336.54 223.74 330.22 225.58 323.9 222.69 318.11 224.27 316.53 223.48 304.42 227.69 301 227.16 296.26 232.17 294.15 236.38 285.47 234.8 284.42 236.9 283.37 240.06 270.73 246.12 268.36 249.54 272.05 253.22 252.83 261.65 254.94 275.6 267.83 291.65 260.2 299.81 273.36 300.87 281 296.66 284.42 305.61 313.9 303.24 315.48 300.08 311.79 298.24 311.53 296.66 316 279.55 323.11 277.44 322.06 292.71 346.54 282.7 355.75 283.76 362.33 267.7 363.65 260.59 362.33 257.96 364.96 246.38 355.49 229.53 358.38"/>
    <polygon class="cls-2" points="252.96 250.73 249.28 242.56 251.64 226.77 256.12 227.3 270.86 213.35 271.65 219.4 268.49 225.72 267.96 228.09 275.86 232.83 267.96 236.77 262.44 241.51 261.91 250.46 264.81 253.09 252.96 250.73"/>
    <polygon class="cls-2" points="264.02 244.41 265.07 251.78 270.33 252.57 269.81 255.73 275.33 259.67 282.18 255.99 282.97 249.41 285.34 244.67 285.86 237.04 279.55 238.88 278.49 242.56 276.91 238.62 273.49 243.09 274.02 249.67 279.02 251.25 279.81 256.52 274.02 254.67 270.86 255.99 271.12 251.52 270.86 244.67 264.02 244.41"/>
    <polygon class="cls-2" points="150.34 469.23 151.27 469.23 161.13 465.88 161.32 469.42 163.92 472.4 156.29 478.17 150.34 469.23"/>
    <polygon class="cls-2" points="168.95 466.63 170.25 471.09 173.97 472.21 174.53 467.93 168.95 466.63"/>
    <polygon class="cls-2" points="136.56 475.19 132.84 478.73 135.63 480.4 138.79 477.98 136.56 475.19"/>
    <polygon class="cls-2" points="280.6 324.95 294.55 346.28 299.81 347.86 307.71 342.85 323.24 345.49 330.61 345.22 335.88 339.17 341.4 333.64 336.67 326.8 332.72 327.32 324.82 320.48 325.08 324.43 319.82 327.06 317.45 322.32 319.03 319.69 307.98 311.79 306.39 311.79 306.66 315.21 303.5 316.8 299.55 313.37 297.97 313.9 297.18 317.58 280.6 324.95"/>
    <polygon class="cls-2" points="251.12 362.33 251.12 364.02 252.45 364.54 254.17 369.26 259.54 372.34 273.75 370.49 278.23 374.97 291.92 378.39 300.61 382.07 304.29 378.13 313.77 377.34 319.03 371.81 326.67 357.33 324.82 347.86 309.29 344.43 301.66 349.44 293.5 347.59 284.55 356.28 285.34 363.65 266.38 365.49 261.65 363.91 258.49 366.28 251.12 362.33"/>
    <polygon class="cls-2" points="291.39 380.49 291.39 392.08 293.76 393.13 288.76 394.97 309.03 396.02 310.34 391.02 313.5 384.71 321.66 379.97 318.24 374.7 314.56 378.92 305.08 379.71 300.87 383.13 291.39 380.49"/>
    <polygon class="cls-2" points="287.97 396.29 310.08 397.08 311.4 391.29 315.08 385.23 323.24 381.02 332.72 389.18 345.88 389.71 351.93 397.08 348.77 402.34 339.56 399.97 324.82 399.18 319.29 403.4 315.08 399.18 313.77 408.4 332.19 425.77 331.93 429.72 338.51 437.62 322.98 426.56 314.29 426.56 313.5 421.03 306.13 414.98 303.5 400.76 299.02 398.66 294.55 407.08 290.86 402.08 287.97 396.29"/>
    <polygon class="cls-2" points="315.81 401.57 315.15 407.62 333.58 425.31 333.21 429.22 337.77 434.98 344.47 438.06 349.22 425.49 355.45 422.33 353.31 416.93 351.63 410.97 352.85 403.99 339.63 401.29 325.11 400.55 319.53 405.02 315.81 401.57"/>
    <polygon class="cls-2" points="343.64 439.33 345.88 438.93 350.36 427.09 355.23 423.8 365.49 431.82 363.65 439.72 359.44 436.69 356.14 442.75 357.73 446.69 356.54 449.86 343.64 439.33"/>
    <polygon class="cls-2" points="347.33 388.13 353.51 397.08 350.75 401.55 354.04 402.87 353.12 410.37 356.8 421.95 366.54 430.77 365.23 439.33 371.41 445.91 376.81 442.35 391.02 438.54 392.47 436.96 390.63 431.43 396.15 425.24 387.07 416.69 390.63 409.19 387.47 406.69 390.23 404.84 386.81 402.08 383.92 405.37 373.91 399.18 374.96 396.55 367.2 393.13 362.46 384.44 354.43 383.26 347.33 388.13"/>
    <polygon class="cls-2" points="369.31 484.6 356.67 471.44 360.36 453.15 358.38 449.59 358.78 446.17 357.46 442.88 359.83 438.27 371.28 446.56 369.96 448.54 370.89 457.75 377.86 464.73 378.52 470.52 369.31 484.6"/>
    <polygon class="cls-2" points="379.18 463.41 371.94 457.23 371.02 449.07 372.99 446.3 377.6 443.4 390.76 440.12 399.71 448.14 398.65 454.33 390.89 457.88 386.02 462.88 379.18 463.41"/>
    <polygon class="cls-2" points="370.34 485.43 383.74 502.74 392.68 500.69 410.55 502.36 407.01 506.08 393.8 503.29 382.63 509.99 391.56 516.88 392.12 526.93 399.38 523.58 402.73 532.7 406.08 524.51 413.15 531.96 405.33 512.79 410.55 517.44 415.94 513.9 409.62 509.25 413.71 504.97 423.2 509.99 419.67 499.94 408.31 495.85 401.05 493.8 403.66 491.57 420.04 498.08 425.44 504.41 427.3 500.13 419.48 493.43 413.15 493.06 410.55 489.52 402.73 487.85 404.03 484.87 407.76 487.47 408.87 485.24 397.33 472.95 397.52 467 401.24 463.83 403.85 470.16 412.22 475.19 406.82 469.98 409.24 468.86 415.01 473.89 410.73 467.37 413.9 466.63 420.23 469.98 415.01 464.95 409.43 461.23 417.43 459.74 417.62 456.95 420.78 456.02 436.79 455.08 441.07 448.57 440.14 440.57 435.12 441.31 437.53 446.15 418.74 450.43 415.94 447.27 400.68 453.6 399.94 455.27 392.12 458.99 387.09 464.02 379.46 464.76 379.83 470.91 370.34 485.43"/>
    <polygon class="cls-2" points="538.42 526.19 539.35 525.44 542.32 521.72 545.49 521.72 544.56 517.63 556.1 513.53 562.99 506.83 559.08 515.21 562.24 521.35 556.47 521.91 550.14 530.1 541.21 531.77 538.42 526.19"/>
    <polygon class="cls-2" points="420.41 543.5 422.83 543.5 433.25 545.73 450 542.75 453.17 545.73 456.89 543.13 457.63 547.78 449.82 548.71 439.02 554.11 435.3 548.52 421.9 548.9 420.41 543.5"/>
    <polygon class="cls-2" points="319.82 373.65 323.86 379.55 333.51 387.34 345.88 388.13 352.99 381.55 361.94 382.34 366.94 380.49 371.15 379.71 372.46 373.12 385.1 352.59 375.62 347.86 360.88 346.8 354.04 352.59 342.72 355.49 343.77 359.7 332.98 360.75 328.77 358.38 319.82 373.65"/>
    <polygon class="cls-2" points="326.93 347.33 328.5 356.28 334.03 358.65 341.8 357.99 341.14 353.91 352.46 351.28 360.09 345.22 376.94 346.01 379.57 336.8 369.57 331.53 356.67 336.8 350.88 332.85 342.72 334.56 332.45 346.54 326.93 347.33"/>
    <polygon class="cls-2" points="440.11 438.93 432.48 439.46 435.11 445.51 419.32 448.67 416.16 445.25 401.42 452.1 401.15 447.35 393.26 439.46 395.1 438.14 392.73 432.09 398.26 426.03 389.05 416.56 391.68 410.5 394.84 411.03 394.84 414.45 423.53 413.66 439.32 402.08 455.91 404.45 456.7 410.24 449.85 414.45 448.8 426.3 456.43 432.09 440.11 438.93"/>
    <polygon class="cls-3" points="456.7 402.34 455.12 402.34 438.8 399.71 423.53 412.08 397.21 412.87 396.42 409.45 389.84 407.08 393.26 404.98 386.15 400.24 383.26 403.66 376.41 398.92 376.68 396.02 368.25 391.55 364.04 383.13 372.73 380.49 374.04 373.91 387.21 351.54 404.58 351.8 422.35 341.4 439.59 358.91 445.38 376.81 450.64 383.39 463.54 379.44 462.23 387.6 454.33 390.23 456.7 402.34"/>
    <polygon class="cls-2" points="456.96 433.67 455.12 433.67 441.69 439.98 442.75 448.93 438.27 455.78 439.06 458.41 446.43 456.04 441.17 464.99 453.01 455.51 454.33 447.62 470.65 445.77 471.7 440.77 460.65 439.98 456.96 433.67"/>
    <polygon class="cls-3" points="380.36 334.96 369.83 329.69 356.67 334.7 350.62 330.75 343.25 332.59 337.98 324.95 332.72 325.22 324.3 318.11 323.77 323.9 320.35 325.22 318.77 322.32 321.14 318.64 305.34 309.43 298.5 284.94 302.44 281.26 300.87 272.57 302.71 269.41 315.34 265.2 317.45 258.09 331.93 255.99 337.46 261.25 374.31 260.2 385.36 280.47 379.83 288.37 391.15 312.85 379.57 328.9 380.36 334.96"/>
    <polygon class="cls-2" points="344.84 259.93 370.15 259.18 369.04 249.51 354.89 245.6 356.38 252.11 346.42 252.58 346.05 255.65 350.8 256.95 344.84 259.93"/>
    <polygon class="cls-2" points="355.64 243.09 356.75 243.27 370.9 248.48 371.83 258.9 376.48 259.46 379.27 263.37 389.51 264.12 395.28 255.37 394.54 248.67 401.05 236.76 389.14 229.31 360.48 230.24 353.96 235.45 355.64 243.09"/>
    <polygon class="cls-2" points="353.22 233.97 355.08 233.03 360.29 228.38 389.32 227.63 400.68 234.34 410.17 226.52 401.98 208.46 379.65 204 375.55 206.04 377.23 217.03 372.02 219.82 362.34 210.51 353.77 220.19 353.22 233.97"/>
    <polygon class="cls-2" points="277.97 198.34 289.28 232.3 289.81 248.88 298.76 249.67 301.66 238.09 315.87 234.14 319.82 203.61 335.35 185.71 319.82 170.97 323.24 140.17 343.25 120.17 341.67 106.47 354.83 97.26 347.46 69.36 330.87 54.89 328.5 65.68 320.61 67.52 302.98 99.37 298.76 117 301.66 127.01 291.39 129.9 287.97 159.12 290.6 168.6 287.18 185.44 277.97 198.34"/>
    <polygon class="cls-2" points="278.49 195.18 279.81 194.66 285.86 184.39 288.5 169.65 285.6 157.02 289.28 128.06 299.29 125.69 296.66 117.8 301.92 97.53 318.77 66.73 327.98 64.62 329.82 52.78 336.4 51.46 346.4 59.36 353.77 58.04 356.67 41.99 365.36 36.98 373.78 42.51 378.78 38.56 372.46 33.56 376.15 30.4 360.62 23.82 350.62 36.46 344.3 32.25 330.09 43.04 320.87 45.41 316.4 58.83 307.71 57.25 297.18 66.99 305.61 69.1 291.13 98.31 281.39 118.32 241.38 149.91 238.48 193.07 250.59 207.29 267.44 196.76 274.02 183.6 278.49 195.18"/>
    <polygon class="cls-2" points="356.93 97 348.51 68.31 332.45 54.36 336.93 53.04 346.93 60.68 355.36 59.1 357.73 43.3 366.15 38.83 373.26 44.62 373.52 61.2 381.94 64.89 380.62 79.89 390.1 94.89 398.79 118.06 409.05 128.59 393.79 166.23 360.88 180.18 349.83 171.49 347.72 155.96 343.51 141.75 364.83 108.32 361.94 98.58 356.93 97"/>
    <polygon class="cls-2" points="424.32 340.24 434.74 336.52 447.77 342.11 451.12 349.18 461.92 355.88 459.69 362.95 448.15 377.47 441.44 358.11 424.32 340.24"/>
    <polygon class="cls-2" points="463.41 377.47 451.12 381.56 449.63 377.84 460.8 364.07 464.15 354.76 452.24 347.69 448.52 340.24 435.49 334.29 421.71 339.5 404.59 349.55 385.6 349.92 378.9 346.94 381.88 336.52 381.88 329.45 392.68 313.07 385.6 297.06 397.14 291.48 448.52 288.13 452.98 275.1 470.11 266.17 479.04 277.33 495.79 285.89 513.66 279.57 523.71 286.27 542.7 284.03 548.28 305.63 538.98 320.51 528.92 331.31 511.43 349.55 521.85 360.35 537.86 352.53 534.51 358.86 522.97 365.19 508.45 378.96 502.87 366.67 490.21 369.28 500.26 355.51 486.12 358.86 478.3 353.65 469.73 354.02 463.41 377.47"/>
    <polygon class="cls-2" points="452.05 272.31 447.58 286.27 396.77 289.06 385.42 295.2 381.51 288.5 386.91 280.68 378.53 264.86 390.82 265.42 396.96 256.49 396.4 249.04 403.66 235.08 412.41 226.33 434.19 228.56 435.86 240.66 456.7 253.69 451.87 261.14 444.61 257.98 445.91 263.93 452.05 272.31"/>
    <polygon class="cls-2" points="400.76 207.03 379.57 202.16 375.49 204.53 375.49 199.92 371.68 200.58 365.62 189.65 381.28 180.71 401.02 180.84 397.21 186.5 393.39 188.08 399.71 200.05 400.76 207.03"/>
    <polygon class="cls-2" points="333.24 210.71 331.14 210.98 328.24 217.29 329.82 226.25 334.3 218.61 333.24 210.71"/>
    <polygon class="cls-2" points="356.93 202.55 358.78 208.87 366.67 199.4 363.25 197.82 356.93 202.55"/>
    <g>
      <polygon class="cls-2" points="359.83 193.07 360.09 196.5 362.99 195.71 364.04 192.55 359.83 193.07"/>
      <polygon class="cls-3" points="479.32 0.01 469.61 28.04 471.98 38.31 464.33 43.03 456.43 35.94 461.18 27.51 454.86 22.76 441.96 29.1 450.12 42.5 456.18 43.81 461.43 56.99 449.87 55.93 443 75.67 454.06 86.47 429.32 85.41 429.32 91.22 442.21 95.41 442.5 102.78 422.73 101.22 413.51 81.73 399.3 70.95 420.63 74.36 439.06 69.61 441.69 59.62 436.97 47.78 384.06 35.94 374.85 44.62 375.1 60.15 383.53 63.58 381.94 79.89 391.15 92.53 399.3 116.49 411.17 128.58 397.21 164.4 409.83 169.93 401.15 174.65 398.27 178.86 403.27 180.7 399.05 188.35 399.83 195.97 404.05 200.72 400.9 201.5 402.21 205.72 411.84 224.65 435.12 226.16 437.52 240.28 459.13 253.69 452.6 263.18 447.41 261.14 447.58 264.29 453.55 273.06 470.47 264.29 480.52 275.85 496.55 283.67 513.3 277.33 524.83 284.39 543.45 281.8 550.51 304.5 541.58 319.77 550.51 317.54 539.71 328.34 546.41 336.89 540.83 354.03 574.11 364.69 574.72 364.55 574.72 41.66 574.71 0 554.01 0.01 488.9 0.01 487.83 0 486.8 0.01 479.32 0.01"/>
      <polygon class="cls-3" points="457.23 4.61 459.59 14.87 462.49 15.4 465.91 10.66 466.44 4.34 457.23 4.61"/>
      <polygon class="cls-2" points="530.41 411.04 516.46 414.72 498.28 432.34 493.28 438.4 472.76 440.77 471.7 445.77 482.76 447.08 471.45 451.05 473.29 454.45 452.74 457.61 441.96 466.32 440.65 477.1 451.43 473.94 453.27 491.84 460.64 500.27 481.19 513.42 501.43 520.01 509.61 512.89 509.61 504.21 529.35 503.68 532.51 509.2 552 505.8 560.93 487.9 570.93 490.52 574.72 481.53 574.72 411.04 530.41 411.04"/>
    </g>
    <polygon class="cls-2" points="278.34 454.95 278.36 454.59 278.69 454.14 279.12 454.14 279.31 454.77 278.34 454.95"/>
    <polygon class="cls-2" points="272.55 418.51 272.82 419.73 273.89 419.43 274.08 418.17 272.55 418.51"/>
    <polygon class="cls-2" points="218.32 417.4 218.66 417.79 220.68 416.67 220.18 416.24 218.32 417.4"/>
    <polygon class="cls-2" points="251.11 365.16 251 367.3 253.18 368.83 251.88 365.31 251.11 365.16"/>
    <polygon class="cls-2" points="292.95 555.67 294.52 555.16 296.44 556.07 298.58 556.56 300.78 558.9 299.6 559.99 296.95 558.15 296.74 556.54 295.86 555.85 294.74 556.65 292.95 555.67"/>
  </g>
  <text class="cls-5" transform="translate(246.41 298.11)">ГЕРМАНИЯ</text>
  <text class="cls-5" transform="translate(335.84 310.21)">ПОЛЬША</text>
  <text class="cls-5" transform="translate(391.91 365.16)">РУМЫНИЯ</text>
  <text class="cls-5" transform="translate(63.54 440.57)">ИСПАНИЯ</text>
  <text class="cls-5" transform="translate(162.19 371.55)">ФРАНЦИЯ</text>
  <path class="cls-6" d="M1293.91,555.32v-6l-6.48-3.13v-3.89l-3.56,2.14-2.37,1.42v-3.56l-6.48,3.89v.68a.4.4,0,0,0-.15,0h-3.28a.41.41,0,0,0-.41.41v1.64h-.87v.58a2.92,2.92,0,0,0-1.92,2.74v3.14h-1v2.1h28.51v-2.1Zm-18.89,0h-.73v-3.14a2.92,2.92,0,0,0-1.92-2.74v-.58H1272v-1.23h2.87a.42.42,0,0,0,.15,0Zm5.48-.58h-2.09v-2.05h2.09Zm0-3.63h-2.09v-2.05h2.09Zm3.38,3.63h-2.09v-2.05h2.09Zm0-3.63h-2.09v-2.05h2.09Zm3,3.63h-2.09v-2.05h2.09Zm0-3.63h-2.09v-2.05h2.09Zm3,3.63h-2.09v-2.05H1290Z" transform="translate(-852.41 -175.91)"/>
  <path class="cls-6" d="M1285.41,574.31v-6l-6.48-3.13v-3.89l-3.56,2.14-2.37,1.42v-3.56l-6.48,3.89v.68a.4.4,0,0,0-.15,0h-3.28a.41.41,0,0,0-.41.41v1.64h-.87v.58a2.92,2.92,0,0,0-1.92,2.74v3.14h-1v2.1h28.51v-2.1Zm-18.89,0h-.73v-3.14a2.92,2.92,0,0,0-1.92-2.74v-.58h-.38v-1.23h2.87a.42.42,0,0,0,.15,0Zm5.48-.58h-2.09v-2.05H1272Zm0-3.63h-2.09v-2.05H1272Zm3.38,3.63h-2.09v-2.05h2.09Zm0-3.63h-2.09v-2.05h2.09Zm3,3.63h-2.09v-2.05h2.09Zm0-3.63h-2.09v-2.05h2.09Zm3,3.63h-2.09v-2.05h2.09Z" transform="translate(-852.41 -175.91)"/>
  <path class="cls-6" d="M1260.88,562.4v-6l-6.48-3.13v-3.89l-3.56,2.14-2.37,1.42v-3.56l-6.48,3.89v.68a.4.4,0,0,0-.15,0h-3.28a.41.41,0,0,0-.41.41v1.64h-.87v.58a2.92,2.92,0,0,0-1.92,2.74v3.14h-1v2.1h28.51v-2.1Zm-18.89,0h-.73v-3.14a2.92,2.92,0,0,0-1.92-2.74v-.58H1239v-1.23h2.87a.42.42,0,0,0,.15,0Zm5.48-.58h-2.09v-2.05h2.09Zm0-3.63h-2.09v-2.05h2.09Zm3.38,3.63h-2.09v-2.05h2.09Zm0-3.63h-2.09v-2.05h2.09Zm3,3.63h-2.09v-2.05h2.09Zm0-3.63h-2.09v-2.05h2.09Zm3,3.63h-2.09v-2.05h2.09Z" transform="translate(-852.41 -175.91)"/>
  <path class="cls-6" d="M1226.66,459.68v-6l-6.48-3.13v-3.89l-3.56,2.14-2.37,1.42v-3.56l-6.48,3.89v.68a.4.4,0,0,0-.15,0h-3.28a.41.41,0,0,0-.41.41v1.64H1203v.58a2.92,2.92,0,0,0-1.92,2.74v3.14h-1v2.1h28.51v-2.1Zm-18.89,0H1207v-3.14a2.92,2.92,0,0,0-1.92-2.74v-.58h-.38V452h2.87a.42.42,0,0,0,.15,0Zm5.48-.58h-2.09V457h2.09Zm0-3.63h-2.09v-2.05h2.09Zm3.38,3.63h-2.09V457h2.09Zm0-3.63h-2.09v-2.05h2.09Zm3,3.63h-2.09V457h2.09Zm0-3.63h-2.09v-2.05h2.09Zm3,3.63h-2.09V457h2.09Z" transform="translate(-852.41 -175.91)"/>
  <path class="cls-6" d="M1191.39,467.24v-6l-6.48-3.13V454.2l-3.56,2.14-2.37,1.42V454.2l-6.48,3.89v.68a.4.4,0,0,0-.15,0h-3.28a.41.41,0,0,0-.41.41v1.64h-.87v.58a2.92,2.92,0,0,0-1.92,2.74v3.14h-1v2.1h28.51v-2.1Zm-18.89,0h-.73V464.1a2.92,2.92,0,0,0-1.92-2.74v-.58h-.38v-1.23h2.87a.42.42,0,0,0,.15,0Zm5.48-.58h-2.09v-2.05H1178Zm0-3.63h-2.09V461H1178Zm3.38,3.63h-2.09v-2.05h2.09Zm0-3.63h-2.09V461h2.09Zm3,3.63h-2.09v-2.05h2.09Zm0-3.63h-2.09V461h2.09Zm3,3.63h-2.09v-2.05h2.09Z" transform="translate(-852.41 -175.91)"/>
  <path class="cls-6" d="M1135.94,515.11v-6l-6.48-3.13v-3.89l-3.56,2.14-2.37,1.42v-3.56l-6.48,3.89v.68a.4.4,0,0,0-.15,0h-3.28a.41.41,0,0,0-.41.41v1.64h-.87v.58a2.92,2.92,0,0,0-1.92,2.74v3.14h-1v2.1h28.51v-2.1Zm-18.89,0h-.73V512a2.92,2.92,0,0,0-1.92-2.74v-.58H1114v-1.23h2.87a.42.42,0,0,0,.15,0Zm5.48-.58h-2.09v-2.05h2.09Zm0-3.63h-2.09v-2.05h2.09Zm3.38,3.63h-2.09v-2.05h2.09Zm0-3.63h-2.09v-2.05h2.09Zm3,3.63h-2.09v-2.05H1129Zm0-3.63h-2.09v-2.05H1129Zm3,3.63h-2.09v-2.05H1132Z" transform="translate(-852.41 -175.91)"/>
  <path class="cls-6" d="M1114.62,528.18v-6l-6.48-3.13v-3.89l-3.56,2.14-2.37,1.42v-3.56l-6.48,3.89v.68a.4.4,0,0,0-.15,0h-3.28a.41.41,0,0,0-.41.41v1.64H1091v.58a2.92,2.92,0,0,0-1.92,2.74v3.14h-1v2.1h28.51v-2.1Zm-18.89,0H1095V525a2.92,2.92,0,0,0-1.92-2.74v-.58h-.38v-1.23h2.87a.42.42,0,0,0,.15,0Zm5.48-.58h-2.09v-2.05h2.09Zm0-3.63h-2.09v-2.05h2.09Zm3.38,3.63h-2.09v-2.05h2.09Zm0-3.63h-2.09v-2.05h2.09Zm3,3.63h-2.09v-2.05h2.09Zm0-3.63h-2.09v-2.05h2.09Zm3,3.63h-2.09v-2.05h2.09Z" transform="translate(-852.41 -175.91)"/>
  <path class="cls-6" d="M1065.18,520.61v-6l-6.48-3.13v-3.89l-3.56,2.14-2.37,1.42v-3.56l-6.48,3.89v.68a.4.4,0,0,0-.15,0h-3.28a.41.41,0,0,0-.41.41v1.64h-.87v.58a2.92,2.92,0,0,0-1.92,2.74v3.14h-1v2.1h28.51v-2.1Zm-18.89,0h-.73v-3.14a2.92,2.92,0,0,0-1.92-2.74v-.58h-.38v-1.23h2.87a.42.42,0,0,0,.15,0Zm5.48-.58h-2.09V518h2.09Zm0-3.63h-2.09v-2.05h2.09Zm3.38,3.63h-2.09V518h2.09Zm0-3.63h-2.09v-2.05h2.09Zm3,3.63h-2.09V518h2.09Zm0-3.63h-2.09v-2.05h2.09Zm3,3.63h-2.09V518h2.09Z" transform="translate(-852.41 -175.91)"/>
  <path class="cls-6" d="M990.55,609.26v-6l-6.48-3.13v-3.89l-3.56,2.14-2.37,1.42v-3.56l-6.48,3.89v.68a.4.4,0,0,0-.15,0h-3.28a.41.41,0,0,0-.41.41v1.64h-.87v.58a2.92,2.92,0,0,0-1.92,2.74v3.14h-1v2.1h28.51v-2.1Zm-18.89,0h-.73v-3.14a2.92,2.92,0,0,0-1.92-2.74v-.58h-.38v-1.23h2.87a.42.42,0,0,0,.15,0Zm5.48-.58H975v-2.05h2.09Zm0-3.63H975V603h2.09Zm3.38,3.63h-2.09v-2.05h2.09Zm0-3.63h-2.09V603h2.09Zm3,3.63h-2.09v-2.05h2.09Zm0-3.63h-2.09V603h2.09Zm3,3.63h-2.09v-2.05h2.09Z" transform="translate(-852.41 -175.91)"/>
  <g>
    <path class="cls-6" d="M1104.74,493.15v2.55h2.14v-2.55h.19v-.84h-2.43l-.12,0v.81l.12,0Z" transform="translate(-852.41 -175.91)"/>
    <path class="cls-6" d="M1110.46,495.69v-2.55h.19v-.84h-2.43l-.12,0v.81l.12,0h.1v2.55Z" transform="translate(-852.41 -175.91)"/>
    <path class="cls-6" d="M1098.92,496.14v-5.42h-9.74v15.16h23.25v-9.74Zm-5.48,6.16v3h-1.88v-3.66h1.88Zm0-1.53h-1.88v-1.92h1.88Zm0-2.79h-1.88v-1.92h1.88Zm0-3.09h-1.88V493h1.88Zm3.24,7.42v3h-1.88v-3.66h1.88Zm0-1.53h-1.88v-1.92h1.88Zm0-2.79h-1.88v-1.92h1.88Zm0-3.09h-1.88V493h1.88Zm4.76,8.62h-1.92v-1.88h1.92Zm0-3.24h-1.92v-1.88h1.92Zm3.1,3.24h-1.92v-1.88h1.92Zm0-3.24h-1.92v-1.88h1.92Zm2.79,3.24h-1.92v-1.88h1.92Zm0-3.24h-1.92v-1.88h1.92Zm2.79,3.24h-1.92v-1.88h1.92Zm0-3.24h-1.92v-1.88h1.92Z" transform="translate(-852.41 -175.91)"/>
    <path class="cls-6" d="M1105.29,491.52c.05-1.63,2.8-1.88,2.8-1.88,4.16-.3,2.8-3.23,2.8-3.23a2,2,0,0,1-2.83,1.47c-2.88-.33-2.77,1.77-2.77,1.77Z" transform="translate(-852.41 -175.91)"/>
  </g>
</svg>
