<svg xmlns="http://www.w3.org/2000/svg" viewBox="0 0 622.98 346.57">
  <defs>
    <style>
      .a {
        fill: #cacac9;
      }

      .b, .f {
        fill: #4c6c9c;
      }

      .c {
        fill: #da84b7;
      }

      .d {
        fill: #dfe5ef;
      }

      .e, .f {
        font-size: 8.2px;
        font-family: OpenSans, OpenSans;
      }

      .e {
        fill: #fff;
      }
    </style>
  </defs>
  <title>map_usa_</title>
  <g>
    <polygon class="a" points="20.03 9.66 80.34 9.66 80.42 49.84 80.42 55.27 58.13 55.27 37.05 60.38 26.2 60.99 22.59 63.7 16.87 53.76 6.02 49.24 8.13 37.8 0 25.45 0 19.13 21.68 22.74 17.17 34.79 20.48 34.79 25.6 22.44 20.03 9.66"/>
    <polygon class="a" points="14.46 54.06 21.38 66.11 26.8 62.49 38.25 61.59 58.43 57.67 82.22 57.67 87.34 61.29 77.7 82.37 81.92 83.88 80.42 88.7 80.42 114.6 5.12 114.6 1.21 102.25 7.53 85.38 8.13 53.76 15.96 54.06 14.46 54.06"/>
    <polygon class="a" points="81.92 9.66 81.92 55.27 89.45 60.38 80.72 81.77 85.23 83.88 82.52 88.39 82.52 114.3 144.56 114.3 144.56 78.76 141.85 74.84 137.94 78.16 125.29 79.96 113.54 60.38 108.72 65.2 108.42 45.63 91.26 25.75 91.41 9.66 81.92 9.66"/>
    <polygon class="a" points="93.06 9.66 220.2 9.66 220.2 70.35 144.81 70.35 144.81 76.1 142.25 72.69 137.56 76.53 126.07 78.02 114.57 58.21 109.67 62.69 109.88 43.95 92.84 24.57 93.06 9.66"/>
    <rect class="a" x="146.3" y="71.84" width="73.86" height="57.93"/>
    <polygon class="a" points="221.49 9.66 221.49 56.77 301.78 56.77 301.78 56.41 299.85 49.27 300.06 36.7 295.25 9.66 221.49 9.66"/>
    <polygon class="a" points="221.36 57.74 221.36 100.96 281.42 100.96 286.72 104.2 288.97 101.79 294.1 102.09 301.78 105.71 302.53 94.41 302.37 67.31 297.87 63.09 301.32 57.98 282.54 57.98 282.54 57.74 221.36 57.74"/>
    <polygon class="a" points="296.51 9.66 317.74 9.66 318.04 0 323.91 11.29 349.21 17.77 354.79 24.7 363.37 20.03 375.57 25.3 362.01 34.18 348.01 45.63 348.01 55.12 340.78 60.84 342.89 64.9 342.13 76.5 357.34 88.09 358.85 94.12 303.58 94.12 303.58 66.71 299.22 63.25 303.28 56.92 300.87 49.09 301.17 35.39 296.51 9.66"/>
    <polygon class="b" points="349.33 45.59 364.12 42.62 362.92 48.34 370.75 49.24 393.33 57.98 398.15 67.92 395.14 78.16 405.98 66.71 396.04 98.33 395.44 108.57 366.23 108.57 361.41 104.66 359.9 93.57 358.41 87.39 343.07 76 343.93 64.28 342.22 61.2 349.25 55.66 349.33 45.59"/>
    <polygon class="a" points="371.82 48.21 381.19 43.73 391.2 34.36 398.45 33.51 388.86 40.97 388.86 43.73 392.91 42.24 398.45 42.67 402.28 49.91 410.58 49.48 416.33 44.8 423.57 45.01 422.94 50.12 432.09 50.34 437.84 57.15 427.62 58 427.41 61.41 423.79 56.51 418.04 57.15 412.29 60.13 407.81 63.96 409.09 59.28 404.19 60.56 399.51 67.58 394.4 56.94 371.82 48.21"/>
    <polygon class="a" points="409.09 117.63 413.14 105.49 410.37 94.2 410.16 85.9 414.2 73.97 418.68 70.57 419.53 75.89 421.44 76.1 422.08 68.22 424.85 66.95 426.34 62.47 428.26 61.62 432.09 62.9 442.32 65.67 445.51 73.12 441.68 71.63 442.1 74.4 444.66 77.59 445.94 82.7 437.2 88.03 438.27 93.99 447.64 85.69 451.47 85.69 456.8 104.43 449.56 108.9 444.23 119.33 408.03 119.33 409.09 117.63"/>
    <polygon class="a" points="5.74 116.57 49.19 116.57 49.19 158.73 106.92 213.98 111.74 221.51 108.12 224.83 107.82 229.34 104.51 234.16 107.52 238.98 105.71 242.29 82.82 244.4 80.11 235.97 65.96 225.13 45.18 218.2 43.07 210.37 29.82 194.71 33.43 187.18 23.19 184.77 23.19 176.94 28.31 181.46 27.41 175.13 29.82 172.12 23.79 168.51 21.68 172.42 17.47 171.52 17.17 165.5 9.34 157.36 10.54 150.44 3.31 139.59 5.74 116.57"/>
    <polygon class="a" points="107.22 210.97 50.9 157.66 50.9 116.4 112.04 116.4 112.04 195.01 106.32 196.52 104.81 201.64 107.22 210.97"/>
    <polygon class="a" points="113.84 116.25 113.84 185.37 165.49 185.37 165.49 131.16 144.75 131.16 144.75 116.25 113.84 116.25"/>
    <rect class="a" x="167.43" y="131.1" width="75.4" height="54.26"/>
    <polygon class="a" points="167.45 186.27 167.45 259.92 175.23 259.92 175.23 253.14 193.48 253.14 193.48 250.57 231.48 250.57 231.48 186.27 167.45 186.27"/>
    <polygon class="c" points="114.57 196 114.57 186.42 165.68 186.42 165.68 259.04 146.72 259.04 107.33 243.07 109.88 239.23 106.47 234.12 109.67 230.29 109.88 224.96 114.14 221.56 109.24 213.68 107.11 202.39 108.39 197.92 114.57 196"/>
    <polygon class="a" points="194.86 254.27 194.86 251.71 232.88 251.71 232.88 194.41 264.43 194.41 264.43 218.5 296.05 228.44 317.14 227.84 323.76 230.85 328.58 230.85 328.58 251.33 332.8 257.65 330.99 278.74 322.86 282.35 321.05 279.34 316.84 281.15 319.25 287.77 312.02 293.79 307.2 291.99 303.58 293.19 306.6 296.51 300.27 296.81 294.25 305.54 292.44 315.78 297.26 325.72 278.59 321.5 268.95 304.94 258.41 288.07 249.07 277.53 236.72 277.53 231.6 289.58 217.75 284.16 212.63 275.73 211.12 266.99 208.71 267.29 194.86 254.27"/>
    <polygon class="a" points="313.82 143.21 243.8 143.21 243.8 129.5 221.66 129.5 221.66 102.4 280.85 102.4 286.57 105.71 289.43 102.7 294.1 103 301.78 107.07 304.04 110.38 309.16 124.99 309.61 135.83 313.82 143.21"/>
    <polygon class="a" points="322.2 156.39 322.2 185.15 243.62 185.19 243.62 144.47 314.54 144.47 319.86 147.87 317.73 150.85 322.2 156.39"/>
    <polygon class="a" points="265.56 217.94 265.56 193.02 232.97 193.02 232.97 186.63 322.2 186.63 323.91 228.8 317.52 226.03 295.9 226.67 265.56 217.94"/>
    <polygon class="a" points="330.09 251.03 330.09 238.53 360.06 238.53 362.31 247.26 354.18 263.08 374.51 263.08 376.62 271.06 366.98 271.66 367.28 274.07 371.8 276.78 376.62 273.77 377.22 276.93 380.69 273.92 382.34 275.42 378.27 281.75 384.6 287.32 381.74 289.13 375.26 283.56 371.05 282.95 371.95 287.77 367.28 285.96 364.57 288.82 351.32 278.59 353.88 282.8 344.09 282.35 338.37 279.64 332.35 278.59 334.3 257.65 330.09 251.03"/>
    <polygon class="a" points="359.75 236.87 330.09 236.87 330.09 229.49 325.57 229.49 323.76 192.45 371.95 192.45 368.79 199.08 376.17 199.08 370.45 211.88 360.66 224.68 359.75 236.87"/>
    <polygon class="a" points="378.32 271.71 375.44 262.44 356.17 262.13 363.94 247.32 360.86 237.42 361.71 225.5 371.19 212.72 392.48 212.72 389.18 244.45 389.93 270.11 378.32 271.71"/>
    <polygon class="a" points="433.58 211.34 372.46 211.34 379.28 193.44 393.76 193.44 393.76 190.68 461.69 190.68 461.69 193.87 449.34 199.62 445.51 204.31 437.42 205.8 433.58 211.34"/>
    <polygon class="a" points="377.82 193.5 376.02 198.17 370.14 198.02 373.61 190.94 323.61 190.94 323.61 155.26 319.7 150.74 322.26 147.57 315.63 143.21 311.12 136.13 353.73 136.13 356.74 139.29 357.04 147.88 365.02 155.71 366.08 159.77 371.2 160.53 368.19 170.31 377.52 177.54 378.27 184.32 380.84 186.43 377.82 193.5"/>
    <polygon class="a" points="356.7 137.86 354.04 134.77 311.02 134.77 310.49 125.08 304.85 109.96 302.72 106.66 303.57 95.06 358.73 95.06 360.11 105.39 370.23 113.9 370.23 117.2 366.18 123.7 361.92 124.98 361.28 127.96 362.45 129.98 356.7 137.86"/>
    <polygon class="a" points="398.91 120.17 398.91 152.24 398 154.8 397.85 162.03 394.39 168.51 393.64 174.08 391.98 179.5 388.82 180.1 387.91 185.22 383.7 182.21 381.74 185.22 379.63 183.87 378.27 176.49 369.24 170.01 372.7 159.62 366.98 158.27 365.48 154.35 358.25 147.27 357.95 139.14 364.12 129.96 362.76 127.55 363.37 125.74 366.83 124.69 372.1 117.16 371.8 112.79 367.28 109.63 395.74 109.63 398.91 120.17"/>
    <polygon class="a" points="400.15 120.83 408.67 120.61 427.52 120.61 427.22 155.9 425.28 161.08 421.44 162.78 421.44 166.83 415.91 174.07 410.8 169.17 408.67 175.13 406.54 172.58 403.13 176.41 399.51 173.21 394.61 174.28 395.46 168.74 399.52 162.41 399.4 155.21 400.46 152.27 400.15 120.83"/>
    <path class="a" d="M1199.31,1357.88l1.73-5.95,3.31-.9,1.5-4.67,4.07-.9,4.22,3.31,3-3.47,3.16,3.92,2.26-6.78,4.22,4.22,7.23-8.28-.15-3.91,3.92-1.21,1.5-5,10.69,5.57,11.29.9,1.81,2.11-.3,5.42,5.72,7.53L1255,1360.37h-51.5v2.71l-12.57-.08,3.84-8s9.41,5.12,4.59,2.86Z" transform="translate(-811.02 -1170.78)"/>
    <polygon class="a" points="428.72 156.01 428.72 120.47 444.08 120.47 448.6 122.43 461.7 123.03 474.2 116.1 474.2 134.62 472.09 138.09 472.09 145.92 466.67 152.84 461.55 154.2 454.77 166.55 453.27 166.55 450.41 163.09 439.26 161.58 428.72 156.01"/>
    <polygon class="a" points="482.88 112.31 482.88 116.99 528.46 116.99 533.78 120.4 534.74 124.55 536.98 126.47 531.55 135.41 536.02 141.69 526.44 147.98 475.11 147.98 475.11 116.35 482.88 112.31"/>
    <polygon class="a" points="473.19 146.14 473.14 138.58 474.05 136.36 474.05 148.7 485.87 148.7 485.87 154.79 499.81 150.43 505.56 153.41 502.58 157.24 497.69 154.9 497.05 158.09 484.06 167.68 477.67 179.18 462.58 183.06 453.15 171.52 453.29 167.42 455.53 167.45 462.33 156.39 468.08 153.62 473.19 146.14"/>
    <polygon class="a" points="546.18 131.16 535.64 123.93 534.59 119.42 528.41 115.5 484.29 115.5 484.44 111.74 493.63 104.51 491.22 98.18 500.55 95.32 518.32 96.08 521.93 93.67 522.54 86.59 517.87 85.98 535.04 73.34 551.75 72.58 551.75 92.61 553.41 92.61 553.41 105.71 550.25 115.95 550.25 127.4 547.54 130.41 548.82 132.14 561.24 129.5 568.17 129.2 551 137.19 545.58 137.19 549.64 134.17 546.18 131.16"/>
    <polygon class="a" points="548.79 130.19 551.67 127.43 551.67 117.31 567.96 117.31 567.96 124.45 560.4 125.08 553.8 128.7 548.79 130.19"/>
    <polygon class="a" points="569.35 125.04 569.13 117.34 573.55 117.31 575.84 124.76 569.35 125.04"/>
    <polygon class="a" points="574.57 115.93 551.56 116 554.62 106.46 575.2 106.34 579.25 103.15 583.72 107.41 579.25 112.95 583.72 118.91 583.72 121.04 588.83 121.04 589.68 118.48 586.17 115.93 590.64 117.84 589.58 121.89 583.08 122.53 577.44 124.55 574.57 115.93"/>
    <polygon class="b" points="560.51 105.39 554.54 105.39 554.54 91.75 552.74 91.75 552.74 72.91 570.2 72.91 570.2 80.36 565.73 83.45 562.11 95.06 560.51 105.39"/>
    <polygon class="a" points="580.21 101.05 575.09 105.11 561.84 105.11 563.05 95.62 566.66 84.03 571.48 81.32 571.48 72.73 573.14 68.37 576.59 69.29 576.59 95.92 580.21 101.05"/>
    <polygon class="a" points="581.12 100.14 577.8 95.77 577.8 68.67 582.17 63.25 588.35 43.97 593.77 34.94 596.48 34.94 597.98 39.3 606.26 37.19 612.44 40.06 611.99 61.14 617.86 64.75 615.9 68.67 621.32 70.47 622.98 75.14 611.54 84.33 609.27 79.96 605.81 84.48 603.25 83.73 603.25 78.61 599.64 81.77 598.13 86.29 593.47 90.2 590.61 87.34 581.12 100.14"/>
    <polygon class="b" points="537.93 126.89 546.03 132.54 543.68 137.44 544.86 140.42 544.22 151.49 537.19 159.05 535.49 155.33 529.2 153.41 528.67 148.19 538.04 142.01 532.82 135.41 537.93 126.89"/>
    <polygon class="a" points="524.73 149.58 526.22 166.4 535.59 166.19 528.35 154.47 527.29 149.36 524.73 149.58"/>
    <polygon class="a" points="499.71 149.68 487.25 153.51 487.14 149.04 523.45 149.04 525.26 167.04 535.49 167.04 531.23 173.43 525.69 185.67 524.09 184.71 529.2 173.21 525.16 173.75 523.67 168.96 520.58 167.25 520.69 155.33 517.07 157.24 518.34 166.83 520.9 171.72 520.69 173.21 509.4 168.1 513.23 163.21 513.23 160.65 507.06 157.67 505.99 152.13 499.71 149.68"/>
    <polygon class="a" points="510.73 160.38 512.38 161.18 512.27 162.99 510.73 160.38"/>
    <polygon class="a" points="478.94 180.03 484.91 168.64 498.22 158.84 498.43 156.39 502.9 158.52 505.67 155.33 506.2 158.63 509.19 159.9 511.53 163.63 507.8 168.1 513.96 171.16 521.11 176.41 521.11 180.14 519.19 180.24 521.54 183.01 520.27 185.35 524.5 187.81 524.96 189.5 446.47 189.4 458.39 180.45 462.12 184.61 478.94 180.03"/>
    <polygon class="a" points="454.47 208.86 446.49 211.28 435.35 211.28 437.91 207.21 446.49 205.55 450.56 200.28 463.06 194.56 463.06 190.79 524.89 190.79 526.9 196.58 529.46 199.15 529.31 204.64 519.62 210.82 517.32 210.72 518.96 211.56 518.12 213.25 521.75 214.28 520.8 217.47 509.01 219.42 501.31 227.39 495.58 227.09 483.38 214.89 472.09 214.89 469.53 209.62 453.72 208.86 454.47 208.86"/>
    <polygon class="a" points="401.21 270.96 396.95 270.96 395.46 266.28 393.55 266.28 394.4 270.75 390.78 269.69 390.78 243.07 393.76 212.82 419.95 212.82 426.56 246.9 426.34 263.3 398.23 263.3 401.21 270.96"/>
    <polygon class="b" points="413.51 270.91 402.22 270.15 399.96 264.73 426.16 264.73 426.77 267.29 454.77 268.5 457.79 272.71 458.24 266.39 464.26 266.24 464.11 274.22 474.35 293.94 474.2 300.72 481.43 317.44 477.66 333.7 475.56 340.03 466.37 343.94 474.05 339.42 476.16 334.3 466.07 334.6 465.77 327.53 459.29 323.01 457.49 315.33 451.01 305.54 449.34 286.08 436.78 275.86 422.72 280.55 413.51 270.91"/>
    <polygon class="a" points="463.82 342.95 460.2 344.76 457.33 345.71 457.44 346.57 459.88 345.39 464.46 344.22 463.82 342.95"/>
    <polygon class="a" points="457.03 269.55 454.92 266.99 427.97 265.79 427.37 263.53 427.67 245.76 420.89 212.93 445.89 212.93 443.78 216.7 455.98 227.99 465.01 238.53 465.92 244.25 468.93 250.58 463.96 265.33 457.49 265.18 457.03 269.55"/>
    <polygon class="a" points="469.98 250.12 467.27 244.4 466.22 237.33 457.03 226.33 445.44 216.55 447.4 212.48 454.62 210.67 468.03 211.12 470.13 215.94 483.38 216.4 494.98 227.69 490.46 236.72 480.37 244.1 476.61 242.45 472.69 244.25 473.9 247.87 469.98 250.12"/>
  </g>
  <path class="d" d="M963,1390.91v-6l-6.48-3.13v-3.89L953,1380l-2.37,1.42v-3.56l-6.48,3.89v.68a.4.4,0,0,0-.15,0h-3.28a.41.41,0,0,0-.41.41v1.64h-.87v.58a2.92,2.92,0,0,0-1.92,2.74v3.14h-1v2.1h28.51v-2.1Zm-18.89,0h-.73v-3.14a2.92,2.92,0,0,0-1.92-2.74v-.58h-.38v-1.23H944a.42.42,0,0,0,.15,0Zm5.48-.58h-2.09v-2.05h2.09Zm0-3.63h-2.09v-2.05h2.09Zm3.38,3.63h-2.09v-2.05H953Zm0-3.63h-2.09v-2.05H953Zm3,3.63h-2.09v-2.05H956Zm0-3.63h-2.09v-2.05H956Zm3,3.63H957v-2.05h2.09Z" transform="translate(-811.02 -1170.78)"/>
  <path class="d" d="M1195.8,1243.83v-6l-6.48-3.13v-3.89l-3.56,2.14-2.37,1.42v-3.56l-6.48,3.89v.68a.4.4,0,0,0-.15,0h-3.28a.41.41,0,0,0-.41.41v1.64h-.87v.58a2.92,2.92,0,0,0-1.92,2.74v3.14h-1v2.1h28.51v-2.1Zm-18.89,0h-.73v-3.14a2.92,2.92,0,0,0-1.92-2.74v-.58h-.38v-1.23h2.87a.42.42,0,0,0,.15,0Zm5.48-.58h-2.09v-2.05h2.09Zm0-3.63h-2.09v-2.05h2.09Zm3.38,3.63h-2.09v-2.05h2.09Zm0-3.63h-2.09v-2.05h2.09Zm3,3.63h-2.09v-2.05h2.09Zm0-3.63h-2.09v-2.05h2.09Zm3,3.63h-2.09v-2.05h2.09Z" transform="translate(-811.02 -1170.78)"/>
  <path class="b" d="M1364.31,1223.31v-6l-6.48-3.13v-3.89l-3.56,2.14-2.37,1.42v-3.56l-6.48,3.89v.68a.4.4,0,0,0-.15,0H1342a.41.41,0,0,0-.41.41v1.64h-.87v.58a2.92,2.92,0,0,0-1.92,2.74v3.14h-1v2.1h28.51v-2.1Zm-18.89,0h-.73v-3.14a2.92,2.92,0,0,0-1.92-2.74v-.58h-.38v-1.23h2.87a.42.42,0,0,0,.15,0Zm5.48-.58h-2.09v-2.05h2.09Zm0-3.63h-2.09v-2.05h2.09Zm3.38,3.63h-2.09v-2.05h2.09Zm0-3.63h-2.09v-2.05h2.09Zm3,3.63h-2.09v-2.05h2.09Zm0-3.63h-2.09v-2.05h2.09Zm3,3.63h-2.09v-2.05h2.09Z" transform="translate(-811.02 -1170.78)"/>
  <text class="e" transform="translate(120.04 238.53)">АРИЗОНА</text>
  <text class="e" transform="translate(349.07 86.74)">ВИСКОНСИН</text>
  <text class="f" transform="translate(523.74 66.07)">ВЕРМОНТ</text>
  <path class="b" d="M1389.15,1325.15v-6l-6.48-3.13v-3.89l-3.56,2.14-2.37,1.42v-3.56l-6.48,3.89v.68a.4.4,0,0,0-.15,0h-3.28a.41.41,0,0,0-.41.41v1.64h-.87v.58a2.92,2.92,0,0,0-1.92,2.74v3.14h-1v2.1h28.51v-2.1Zm-18.89,0h-.73V1322a2.92,2.92,0,0,0-1.92-2.74v-.58h-.38v-1.23h2.87a.42.42,0,0,0,.15,0Zm5.48-.58h-2.09v-2.05h2.09Zm0-3.63h-2.09v-2.05h2.09Zm3.38,3.63H1377v-2.05h2.09Zm0-3.63H1377v-2.05h2.09Zm3,3.63h-2.09v-2.05h2.09Zm0-3.63h-2.09v-2.05h2.09Zm3,3.63h-2.09v-2.05h2.09Z" transform="translate(-811.02 -1170.78)"/>
  <path class="b" d="M1324.47,1465.38v-6l-6.48-3.13v-3.89l-3.56,2.14-2.37,1.42v-3.56l-6.48,3.89v.68a.4.4,0,0,0-.15,0h-3.28a.41.41,0,0,0-.41.41v1.64h-.87v.58a2.92,2.92,0,0,0-1.92,2.74v3.14h-1v2.1h28.51v-2.1Zm-18.89,0h-.73v-3.14a2.92,2.92,0,0,0-1.92-2.74v-.58h-.38v-1.23h2.87a.42.42,0,0,0,.15,0Zm5.48-.58H1309v-2.05h2.09Zm0-3.63H1309v-2.05h2.09Zm3.38,3.63h-2.09v-2.05h2.09Zm0-3.63h-2.09v-2.05h2.09Zm3,3.63h-2.09v-2.05h2.09Zm0-3.63h-2.09v-2.05h2.09Zm3,3.63h-2.09v-2.05h2.09Z" transform="translate(-811.02 -1170.78)"/>
  <text class="f" transform="translate(541.36 167.91)">НЬЮ ДЖЕРСИ</text>
  <text class="f" transform="translate(482.95 306.7)">ФЛОРИДА</text>
</svg>
