<svg xmlns="http://www.w3.org/2000/svg" viewBox="0 0 40.97 25.94"><defs><style>.cls-1{fill:#212963;}.cls-1,.cls-2,.cls-3{fill-rule:evenodd;}.cls-2{fill:#fff;}.cls-3{fill:#d91f26;}</style></defs><title>Ресурс 11</title><g id="Слой_2" data-name="Слой 2"><g id="Layer_1" data-name="Layer 1"><polygon class="cls-1" points="0 13.97 16.39 13.97 16.39 0 0 0 0 13.97 0 13.97"/><polygon class="cls-2" points="40.97 2 16.39 2 16.39 3.99 40.97 3.99 40.97 2 40.97 2"/><polygon class="cls-2" points="40.97 5.99 16.39 5.99 16.39 7.98 40.97 7.98 40.97 5.99 40.97 5.99"/><polygon class="cls-2" points="40.97 9.98 16.39 9.98 16.39 11.97 40.97 11.97 40.97 9.98 40.97 9.98"/><polygon class="cls-2" points="40.97 13.97 0 13.97 0 15.96 40.97 15.96 40.97 13.97 40.97 13.97"/><polygon class="cls-2" points="40.97 17.96 0 17.96 0 19.95 40.97 19.95 40.97 17.96 40.97 17.96"/><polygon class="cls-2" points="40.97 21.95 0 21.95 0 23.95 40.97 23.95 40.97 21.95 40.97 21.95"/><path class="cls-3" d="M41,23.95H0v2H41v-2Zm0-4H0v2H41V20Zm0-4H0v2H41V16Zm0-4H16.39v2H41V12Zm0-4H16.39v2H41V8Zm0-4H16.39V6H41V4Zm0-4H16.39V2H41V0Z"/><polygon class="cls-2" points="1.22 0.46 1.38 0.97 1.89 0.97 1.47 1.28 1.63 1.79 1.22 1.48 0.8 1.79 0.96 1.28 0.54 0.97 1.06 0.97 1.22 0.46 1.22 0.46"/><polygon class="cls-2" points="6.68 0.46 6.83 0.97 7.35 0.97 6.93 1.28 7.09 1.79 6.68 1.48 6.26 1.79 6.42 1.28 6 0.97 6.52 0.97 6.68 0.46 6.68 0.46"/><polygon class="cls-2" points="12.14 0.46 12.29 0.97 12.81 0.97 12.39 1.28 12.55 1.79 12.14 1.48 11.72 1.79 11.88 1.28 11.46 0.97 11.98 0.97 12.14 0.46 12.14 0.46"/><polygon class="cls-2" points="3.95 0.46 4.11 0.97 4.62 0.97 4.2 1.28 4.36 1.79 3.95 1.48 3.53 1.79 3.69 1.28 3.27 0.97 3.79 0.97 3.95 0.46 3.95 0.46"/><polygon class="cls-2" points="9.41 0.46 9.56 0.97 10.08 0.97 9.66 1.28 9.82 1.79 9.41 1.48 8.99 1.79 9.15 1.28 8.73 0.97 9.25 0.97 9.41 0.46 9.41 0.46"/><polygon class="cls-2" points="14.87 0.46 15.02 0.97 15.54 0.97 15.12 1.28 15.28 1.79 14.87 1.48 14.45 1.79 14.61 1.28 14.19 0.97 14.71 0.97 14.87 0.46 14.87 0.46"/><polygon class="cls-2" points="2.58 1.85 2.74 2.36 3.26 2.36 2.84 2.68 3 3.19 2.58 2.87 2.17 3.19 2.33 2.68 1.91 2.36 2.42 2.36 2.58 1.85 2.58 1.85"/><polygon class="cls-2" points="8.04 1.85 8.2 2.36 8.71 2.36 8.3 2.68 8.46 3.19 8.04 2.87 7.63 3.19 7.79 2.68 7.37 2.36 7.88 2.36 8.04 1.85 8.04 1.85"/><polygon class="cls-2" points="13.5 1.85 13.66 2.36 14.17 2.36 13.76 2.68 13.92 3.19 13.5 2.87 13.08 3.19 13.24 2.68 12.83 2.36 13.34 2.36 13.5 1.85 13.5 1.85"/><polygon class="cls-2" points="5.31 1.85 5.47 2.36 5.99 2.36 5.57 2.68 5.73 3.19 5.31 2.87 4.89 3.19 5.06 2.68 4.64 2.36 5.15 2.36 5.31 1.85 5.31 1.85"/><polygon class="cls-2" points="10.77 1.85 10.93 2.36 11.45 2.36 11.03 2.68 11.19 3.19 10.77 2.87 10.35 3.19 10.52 2.68 10.1 2.36 10.61 2.36 10.77 1.85 10.77 1.85"/><polygon class="cls-2" points="1.22 3.27 1.38 3.78 1.89 3.78 1.47 4.09 1.63 4.6 1.22 4.29 0.8 4.6 0.96 4.09 0.54 3.78 1.06 3.78 1.22 3.27 1.22 3.27"/><polygon class="cls-2" points="6.68 3.27 6.83 3.78 7.35 3.78 6.93 4.09 7.09 4.6 6.68 4.29 6.26 4.6 6.42 4.09 6 3.78 6.52 3.78 6.68 3.27 6.68 3.27"/><polygon class="cls-2" points="12.14 3.27 12.29 3.78 12.81 3.78 12.39 4.09 12.55 4.6 12.14 4.29 11.72 4.6 11.88 4.09 11.46 3.78 11.98 3.78 12.14 3.27 12.14 3.27"/><polygon class="cls-2" points="3.95 3.27 4.11 3.78 4.62 3.78 4.2 4.09 4.36 4.6 3.95 4.29 3.53 4.6 3.69 4.09 3.27 3.78 3.79 3.78 3.95 3.27 3.95 3.27"/><polygon class="cls-2" points="9.41 3.27 9.56 3.78 10.08 3.78 9.66 4.09 9.82 4.6 9.41 4.29 8.99 4.6 9.15 4.09 8.73 3.78 9.25 3.78 9.41 3.27 9.41 3.27"/><polygon class="cls-2" points="14.87 3.27 15.02 3.78 15.54 3.78 15.12 4.09 15.28 4.6 14.87 4.29 14.45 4.6 14.61 4.09 14.19 3.78 14.71 3.78 14.87 3.27 14.87 3.27"/><polygon class="cls-2" points="2.58 4.66 2.74 5.17 3.26 5.17 2.84 5.48 3 6 2.58 5.68 2.17 6 2.33 5.48 1.91 5.17 2.42 5.17 2.58 4.66 2.58 4.66"/><polygon class="cls-2" points="8.04 4.66 8.2 5.17 8.71 5.17 8.3 5.48 8.46 6 8.04 5.68 7.63 6 7.79 5.48 7.37 5.17 7.88 5.17 8.04 4.66 8.04 4.66"/><polygon class="cls-2" points="13.5 4.66 13.66 5.17 14.17 5.17 13.76 5.48 13.92 6 13.5 5.68 13.08 6 13.24 5.48 12.83 5.17 13.34 5.17 13.5 4.66 13.5 4.66"/><polygon class="cls-2" points="5.31 4.66 5.47 5.17 5.99 5.17 5.57 5.48 5.73 6 5.31 5.68 4.89 6 5.06 5.48 4.64 5.17 5.15 5.17 5.31 4.66 5.31 4.66"/><polygon class="cls-2" points="10.77 4.66 10.93 5.17 11.45 5.17 11.03 5.48 11.19 6 10.77 5.68 10.35 6 10.52 5.48 10.1 5.17 10.61 5.17 10.77 4.66 10.77 4.66"/><polygon class="cls-2" points="1.22 6.08 1.38 6.59 1.89 6.59 1.47 6.9 1.63 7.41 1.22 7.09 0.8 7.41 0.96 6.9 0.54 6.59 1.06 6.59 1.22 6.08 1.22 6.08"/><polygon class="cls-2" points="6.68 6.08 6.83 6.59 7.35 6.59 6.93 6.9 7.09 7.41 6.68 7.09 6.26 7.41 6.42 6.9 6 6.59 6.52 6.59 6.68 6.08 6.68 6.08"/><polygon class="cls-2" points="12.14 6.08 12.29 6.59 12.81 6.59 12.39 6.9 12.55 7.41 12.14 7.09 11.72 7.41 11.88 6.9 11.46 6.59 11.98 6.59 12.14 6.08 12.14 6.08"/><polygon class="cls-2" points="3.95 6.08 4.11 6.59 4.62 6.59 4.2 6.9 4.36 7.41 3.95 7.09 3.53 7.41 3.69 6.9 3.27 6.59 3.79 6.59 3.95 6.08 3.95 6.08"/><polygon class="cls-2" points="9.41 6.08 9.56 6.59 10.08 6.59 9.66 6.9 9.82 7.41 9.41 7.09 8.99 7.41 9.15 6.9 8.73 6.59 9.25 6.59 9.41 6.08 9.41 6.08"/><polygon class="cls-2" points="14.87 6.08 15.02 6.59 15.54 6.59 15.12 6.9 15.28 7.41 14.87 7.09 14.45 7.41 14.61 6.9 14.19 6.59 14.71 6.59 14.87 6.08 14.87 6.08"/><polygon class="cls-2" points="2.58 7.47 2.74 7.98 3.26 7.98 2.84 8.29 3 8.8 2.58 8.49 2.17 8.8 2.33 8.29 1.91 7.98 2.42 7.98 2.58 7.47 2.58 7.47"/><polygon class="cls-2" points="8.04 7.47 8.2 7.98 8.71 7.98 8.3 8.29 8.46 8.8 8.04 8.49 7.63 8.8 7.79 8.29 7.37 7.98 7.88 7.98 8.04 7.47 8.04 7.47"/><polygon class="cls-2" points="13.5 7.47 13.66 7.98 14.17 7.98 13.76 8.29 13.92 8.8 13.5 8.49 13.08 8.8 13.24 8.29 12.83 7.98 13.34 7.98 13.5 7.47 13.5 7.47"/><polygon class="cls-2" points="5.31 7.47 5.47 7.98 5.99 7.98 5.57 8.29 5.73 8.8 5.31 8.49 4.89 8.8 5.06 8.29 4.64 7.98 5.15 7.98 5.31 7.47 5.31 7.47"/><polygon class="cls-2" points="10.77 7.47 10.93 7.98 11.45 7.98 11.03 8.29 11.19 8.8 10.77 8.49 10.35 8.8 10.52 8.29 10.1 7.98 10.61 7.98 10.77 7.47 10.77 7.47"/><polygon class="cls-2" points="1.22 8.88 1.38 9.4 1.89 9.39 1.47 9.71 1.63 10.22 1.22 9.9 0.8 10.22 0.96 9.71 0.54 9.39 1.06 9.4 1.22 8.88 1.22 8.88"/><polygon class="cls-2" points="6.68 8.88 6.83 9.4 7.35 9.39 6.93 9.71 7.09 10.22 6.68 9.9 6.26 10.22 6.42 9.71 6 9.39 6.52 9.4 6.68 8.88 6.68 8.88"/><polygon class="cls-2" points="12.14 8.88 12.29 9.4 12.81 9.39 12.39 9.71 12.55 10.22 12.14 9.9 11.72 10.22 11.88 9.71 11.46 9.39 11.98 9.4 12.14 8.88 12.14 8.88"/><polygon class="cls-2" points="3.95 8.88 4.11 9.4 4.62 9.39 4.2 9.71 4.36 10.22 3.95 9.9 3.53 10.22 3.69 9.71 3.27 9.39 3.79 9.4 3.95 8.88 3.95 8.88"/><polygon class="cls-2" points="9.41 8.88 9.56 9.4 10.08 9.39 9.66 9.71 9.82 10.22 9.41 9.9 8.99 10.22 9.15 9.71 8.73 9.39 9.25 9.4 9.41 8.88 9.41 8.88"/><polygon class="cls-2" points="14.87 8.88 15.02 9.4 15.54 9.39 15.12 9.71 15.28 10.22 14.87 9.9 14.45 10.22 14.61 9.71 14.19 9.39 14.71 9.4 14.87 8.88 14.87 8.88"/><polygon class="cls-2" points="2.58 10.28 2.74 10.79 3.26 10.79 2.84 11.1 3 11.61 2.58 11.29 2.17 11.61 2.33 11.1 1.91 10.79 2.42 10.79 2.58 10.28 2.58 10.28"/><polygon class="cls-2" points="8.04 10.28 8.2 10.79 8.71 10.79 8.3 11.1 8.46 11.61 8.04 11.29 7.63 11.61 7.79 11.1 7.37 10.79 7.88 10.79 8.04 10.28 8.04 10.28"/><polygon class="cls-2" points="13.5 10.28 13.66 10.79 14.17 10.79 13.76 11.1 13.92 11.61 13.5 11.29 13.08 11.61 13.24 11.1 12.83 10.79 13.34 10.79 13.5 10.28 13.5 10.28"/><polygon class="cls-2" points="5.31 10.28 5.47 10.79 5.99 10.79 5.57 11.1 5.73 11.61 5.31 11.29 4.89 11.61 5.06 11.1 4.64 10.79 5.15 10.79 5.31 10.28 5.31 10.28"/><polygon class="cls-2" points="10.77 10.28 10.93 10.79 11.45 10.79 11.03 11.1 11.19 11.61 10.77 11.29 10.35 11.61 10.52 11.1 10.1 10.79 10.61 10.79 10.77 10.28 10.77 10.28"/><polygon class="cls-2" points="1.22 11.69 1.38 12.2 1.89 12.2 1.47 12.52 1.63 13.03 1.22 12.71 0.8 13.03 0.96 12.52 0.54 12.2 1.06 12.2 1.22 11.69 1.22 11.69"/><polygon class="cls-2" points="6.68 11.69 6.83 12.2 7.35 12.2 6.93 12.52 7.09 13.03 6.68 12.71 6.26 13.03 6.42 12.52 6 12.2 6.52 12.2 6.68 11.69 6.68 11.69"/><polygon class="cls-2" points="12.14 11.69 12.29 12.2 12.81 12.2 12.39 12.52 12.55 13.03 12.14 12.71 11.72 13.03 11.88 12.52 11.46 12.2 11.98 12.2 12.14 11.69 12.14 11.69"/><polygon class="cls-2" points="3.95 11.69 4.11 12.2 4.62 12.2 4.2 12.52 4.36 13.03 3.95 12.71 3.53 13.03 3.69 12.52 3.27 12.2 3.79 12.2 3.95 11.69 3.95 11.69"/><polygon class="cls-2" points="9.41 11.69 9.56 12.2 10.08 12.2 9.66 12.52 9.82 13.03 9.41 12.71 8.99 13.03 9.15 12.52 8.73 12.2 9.25 12.2 9.41 11.69 9.41 11.69"/><polygon class="cls-2" points="14.87 11.69 15.02 12.2 15.54 12.2 15.12 12.52 15.28 13.03 14.87 12.71 14.45 13.03 14.61 12.52 14.19 12.2 14.71 12.2 14.87 11.69 14.87 11.69"/></g></g></svg>