<?xml version="1.0" encoding="utf-8"?>
<!-- Generator: Adobe Illustrator 15.1.0, SVG Export Plug-In  -->
<!DOCTYPE svg PUBLIC "-//W3C//DTD SVG 1.1//EN" "http://www.w3.org/Graphics/SVG/1.1/DTD/svg11.dtd" [
	<!ENTITY ns_flows "http://ns.adobe.com/Flows/1.0/">
]>
<svg version="1.1"
	 xmlns="http://www.w3.org/2000/svg" xmlns:xlink="http://www.w3.org/1999/xlink" xmlns:a="http://ns.adobe.com/AdobeSVGViewerExtensions/3.0/"
	 x="0px" y="0px"  viewBox="0 0 612 792"
	 xml:space="preserve">
<defs>
</defs>
<path fill-rule="evenodd" clip-rule="evenodd" fill="#5BA494" d="M233.33,178.84l-1.63-1.86l-1.86-1.63l-1.84-1.39l-2.1-1.16
	l-2.08-0.92l-2.33-0.71l-2.31-0.24l-2.55-0.21h-3.25h-2.55l-4.88-3.02l-1.16,0.24l-2.08,0.68l-2.78,1.39l-3.49,1.86l-9.5,5.8
	l-12.31,8.11l-4.17,2.08L167,190.2l-3.49,1.84l-3.23,2.1l-1.63,1.16l-2.1,1.63l-2.78,1.86l-3.23,2.55l-0.24,0.47l-0.47,1.16
	l-0.24,1.63v1.84l0.71,8.82l0.69,9.05l0.24,1.84l0.24,1.86l0.68,1.39l1.18,1.16l5.57,3.02l0.69,0.24l1.16-0.24l1.63-0.24l1.86-0.45
	l4.41-1.63l5.8-2.55l2.31-0.94l2.31-0.92l2.33-1.16l2.78-0.94l4.41-1.63l2.31-0.92l0.68,0.24h0.47l0.47,0.47l0.45,0.21l0.47,1.39
	l0.23,1.63v1.63l-0.47,1.63l-0.45,1.39l-0.71,1.39l-1.15,1.63l-1.86,1.63l-2.31,2.08l-3.25,2.1l-2.78,1.39l-2.31,1.16l-2.33,0.71
	l-2.08,0.68h-1.16l-1.63,0.47l-1.63,0.69l-1.63,1.16l-2.08,1.39l-2.1,1.63l-2.31,2.1l-2.33,2.31l-0.92,0.47l-0.47,0.69l-0.68,0.71
	l-0.24,0.92l-0.68,1.63l-0.24,2.1l0.24,0.92l0.45,0.68l0.94,0.24h1.16l0.92-0.24l1.16-0.21l1.39-0.47l1.63-0.47l3.72-1.84l4.62-2.33
	l15.78-8.35l5.33-2.78l5.35-3.25l5.33-3.23l5.09-3.72l5.12-3.94l4.86-4.41l4.88-4.41l4.62-4.86l2.1-2.55l1.86-2.57l1.61-2.55
	l1.18-2.78l0.92-2.78l0.69-2.78l0.47-3.02l0.24-3.02v-2.31l-0.24-2.31l-0.47-2.1l-0.45-2.08l-0.47-1.86l-0.69-1.86l-0.94-1.86
	L233.33,178.84L233.33,178.84z M155.16,323.11l2.78-0.24l6.04-0.47l6.27-0.45l2.78-0.47l0.21-2.1l0.24-2.31l0.23-2.1v-2.08v-4.64
	l-0.68-3.94l-0.47-1.86l-0.47-1.39l-0.68-1.39l-0.71-1.16l-4.17-1.39l-0.92-0.92l-1.16-1.39l-1.39-2.1l-1.39-2.55l-1.39-3.02
	l-0.71-2.55l-0.69-2.31v-1.86l0.21-1.16l0.47-0.94l0.47-0.92l0.92-0.68l0.92-0.71l1.86-0.92l2.1-0.71l2.78-0.69l10.89-4.64
	l5.57-3.49l4.17-2.31l3.02-1.63l1.39-0.45l1.86-0.47l2.78-1.16l4.18-2.1l5.33-3.02l5.8-3.47l5.1-3.25l4.41-3.25l3.94-3.23
	l16.25-14.38l0.69-0.71l0.94-0.68l0.69-1.16l0.71-1.39l1.63-3.72l1.61-4.62l1.39-4.65l1.18-3.25l0.92-2.31l0.71-0.94l1.16-1.61
	l0.92-1.63l0.92-1.86l0.71-1.86l0.69-2.08l0.23-2.1l0.24-2.08l0.23-2.33l-0.71-3.94l-0.45-2.78l-1.16-3.02l-1.39-3.02l-1.86-3
	l-2.1-3.02l-2.55-3.02l-2.78-3.25l-3.25-3.02l-3.47-3.02l-2.55-2.55l-1.86-2.08l-0.71-1.18l-0.45-0.92l-0.23-1.16v-0.92l0.23-1.39
	l0.45-1.63l0.94-1.63l1.15-1.63l1.63-1.63l2.08-1.63l2.57-1.63l2.78-1.61l2.78-1.63l2.08-1.63l0.92-0.71l0.71-0.69l0.47-0.71
	l0.21-0.68l5.35-12.07l2.08-4.39l1.86-3.25l1.86-2.55l1.39-1.63l1.39-1.16l1.16-1.63l0.92-1.63l0.71-1.86l0.69-1.84l0.47-2.1
	l0.23-2.31v-2.57v-2.31l-0.47-2.55l-0.47-2.55l-0.92-2.55l-1.16-2.57l-1.16-2.55l-1.63-2.55l-1.63-2.55l-2.1-2.55l-1.84-2.33
	l-2.1-2.08l-1.84-1.63l-2.1-1.39l-2.31-1.39l-2.1-0.94l-2.31-0.69l-14.15-6.49L228,48.72l-3.49-1.39l-2.55-0.94l-1.86-0.21h-3.47
	h-2.78l-2.33-0.23l-1.61-0.24l-2.1-0.47l-1.63-0.45l-1.63-0.94l-1.63-0.92l-1.84-0.47l-1.63-0.69l-1.86-0.24l-1.84-0.47h-1.63
	l-1.86-0.24l-7.88,2.78l-3.72,1.39l-2.55,0.71l-2.55,0.47h-3.49h-5.33l-3.7-0.47h-1.63l-1.16-0.47l-0.71-0.24l-0.47-0.21l-1.16-1.18
	l-0.69-0.45h-0.47l-0.24,0.24l-0.45,0.45l-0.24,0.24l-0.71,1.39l-0.45,1.86l-0.24,0.92l-0.47,1.16l-0.69,0.94l-0.71,0.68l-0.69,0.94
	l-0.94,0.68l-0.92,0.71l-1.16,0.68l-4.17,1.86l-2.78,1.39l-2.33,0.68l-2.78,1.16L106,73.29l0.47-2.78l0.24-2.78l0.21-3l0.47-2.8
	l2.55-17.85l0.47-11.6l0.24-3.02l0.45-2.55l0.24-1.16l0.47-0.92l0.47-0.71l0.45-0.68l1.63-1.86l1.39-1.63l1.16-1.39l0.71-1.16
	l0.45-1.16l0.24-1.63l0.24-1.86l0.23-2.31l-0.47-1.16L117.6,7.9l-1.16-1.39l-1.18-1.63L107.86,0L96.94,4.88l-1.16,3.47l-0.68,3.49
	l-0.47,3.25l-0.24,3l0.24,1.86v1.63l0.47,1.63l0.24,1.39l0.92,2.55l0.69,2.78l0.24,2.31l0.24,2.33v1.63l-0.24,1.63l-0.45,1.84
	l-0.71,1.86l-0.47,1.86l-0.21,1.61v1.39l0.21,1.39v2.33v2.55l-0.21,2.78v3.02v2.78v2.31v1.86l-0.24,0.92v3.25v3.02v3.02l-0.24,2.78
	l-3.49,1.63l-4.86,3.94l-4.17,2.78l-1.63,0.92l-1.63,0.71l-1.39,0.24l-1.16,0.21H68.2L66.8,89.3l-1.16,0.47l-1.39,0.68l-0.94,0.94
	l-0.92,1.16l-0.92,1.39l-0.71,1.39l-0.69,1.63l-1.41,5.33l-1.16,5.09l-0.69,4.64l-0.24,4.41v2.31l0.24,2.1l0.45,2.08l0.47,1.86
	l0.47,1.63l0.92,1.39l0.94,1.39l0.92,1.39l1.16,1.16l1.39,0.92l1.39,0.71l1.63,0.69l1.63,0.47l1.84,0.47l2.1,0.23h2.08h1.18
	l1.39-0.23l1.16-0.47l1.39-0.47l2.55-1.39l3.02-1.84l2.08-2.1l1.63-1.84l0.71,2.08l0.69,1.86l0.71,2.55l0.47,2.78l0.45,3.02v3.47
	v3.49l-0.45,3.7l-0.47,3.49l-0.92,3.47l-1.18,3.49l-1.16,3.7l-1.63,3.49l-1.63,3.47l-1.39,2.78l-0.92,2.78l-0.68,2.57l-0.24,2.78
	l0.24,1.63l0.45,1.6l0.47,1.86l0.68,2.1l2.1,4.39l3.02,5.12l0.45,0.69l0.24,1.18l0.24,1.16v1.39l-0.24,2.78l-0.69,3.7l-0.24,2.31
	l-0.47,2.1l-0.45,2.31l-0.47,2.33l-0.71,2.55l-0.45,2.31l-0.71,1.86l-0.92,1.63l-0.71,1.39l-0.68,0.69l-0.92,0.71h-0.94l-0.45-0.24
	l-0.47-0.47L78.85,228l-0.24-0.92l-9.74-31.55l-2.08-6.96l-2.1-6.72l-1.84-6.04l-1.63-6.04l-1.63-5.57l-1.39-5.09l-1.39-4.88
	l-0.94-4.41l-2.08-8.58l-1.86-8.11l-1.63-8.35l-1.39-7.88l-1.16-7.9l-0.92-7.88l-0.92-7.66l-0.47-7.43l-2.1-23.89l-0.45-6.02
	l-0.47-4.88l-0.24-3.94l-0.24-3.02l-0.24-2.78v-3.25v-3.94v-4.41l-1.61-3.25l-1.39-2.78l-1.39-2.31l-1.39-1.86l-1.39-1.63
	l-1.63-0.92l-1.39-0.68l-1.39-0.24l-1.63,0.24l-1.39,0.68l-1.16,0.92l-1.18,1.63l-0.92,1.63l-0.92,1.86l-0.71,1.86l-0.45,1.84
	L21.34,29l-0.24,1.84v1.86v2.1l0.24,3.7v3.25l-0.24,2.78l-0.47,2.31l-0.21,2.1l-0.47,2.08l-0.23,1.86v1.86v3.94l-0.24,3.94
	l-0.24,3.7l-0.45,3.49l-0.47,3.25l-0.69,3.23l-0.94,3.02l-1.16,3.02l-0.92,2.78l-0.94,2.31l-0.69,1.86l-0.47,1.39L11.84,93
	l-0.47,2.33l-0.24,1.63v2.08l-0.47,2.1l-0.45,2.31l-0.71,2.31l-0.45,2.1l-0.24,2.1v1.61l-1.39,9.05l-0.47,2.08l-0.47,1.86
	l-0.21,1.63v1.63l-0.24,2.78l-0.47,2.78l-0.92,3.02l-1.16,3.02l-0.71,19.01l-1.86,17.64l2.78,6.01l-2.78,10.45l-0.69,6.72L0,207.37
	l1.39,2.31l2.1,3.94l0.92,1.86l0.92,1.63l0.94,1.16l0.45,0.47l0.94-0.24l0.92-0.47l1.16-1.16l1.16-1.16l1.16-1.86l1.18-2.1
	l1.39-2.55l1.39-3.02l0.92-2.55l0.71-3.23l0.69-4.2l0.24-4.86l0.47-4.65l0.21-3.7l0.47-2.55l0.23-1.63l0.92-2.55l0.71-3.72
	l0.92-5.33l0.92-6.49l1.18-6.96l0.92-5.59l0.47-4.39l0.21-3.49v-2.31l0.24-1.86l0.24-1.63l0.47-1.16l0.45-0.71l0.71-0.45h0.92
	l0.94,0.24l1.39,1.16l1.16,1.63l1.39,2.08l1.16,2.55l1.39,2.78l1.16,3.49l1.39,3.94l1.16,4.17l6.51,21.81l3.02,14.38L51.5,196
	l1.39,4.17l1.39,3.02l1.16,2.08l0.45,4.17l0.47,2.55l0.92,3.49l1.18,3.7l1.84,4.41l13.23,43.84l1.86,5.57l1.63,4.88l1.84,4.17
	l1.63,3.47l1.86,2.57l1.63,1.84l0.69,0.71l0.92,0.45l0.71,0.47h0.92h0.94l0.92-0.47l0.71-0.45l0.69-0.71l0.71-0.92l0.68-1.16
	l0.47-1.16l0.45-1.63l0.94-1.63l0.92-1.39l1.39-1.63l1.63-1.63l1.39-1.39l1.16-1.39l0.24-0.92l0.47-0.71v-0.69V273l-0.24-2.55
	l-0.24-2.31l-0.24-1.63v-1.63v-2.55v-3.25v-4.17l0.24-3.94l0.24-3.94l0.45-3.49l0.24-2.1v-3.47v-2.1v-2.08l-0.24-2.1l-0.21-2.08
	v-2.1l-0.24-2.31v-2.31v-2.57v-1.84v-2.78v-3.02l0.24-2.78v-1.63l0.21-1.86l0.24-2.31l0.24-2.78l0.24-2.55l0.47-2.57l0.21-2.31
	l0.47-1.86l0.24-2.08l0.24-2.1l0.24-2.31v-2.78v-2.1l-0.24-1.6l-0.24-1.63l-0.47-1.16l-0.45-1.18l-0.24-1.61l-0.24-1.86v-2.31
	l0.24-4.65l0.24-5.8l0.69-7.19l0.92-8.58l0.94-8.35l0.92-6.72l0.24-5.12v-3.47l-0.69-9.74l-0.24-2.57l-0.24-4.17l2.08-1.39
	l2.57-1.16l2.55-1.39l2.78-1.63l18.77-9.74l3.49-2.08l3.02-1.63l1.16-0.47l1.39-0.45l0.92-0.24h1.18h0.69l0.71,0.24l0.69,0.45
	l0.47,0.47l0.24,0.69l0.21,1.63l0.24,2.1v2.78l-0.45,3.25l-0.47,2.78l-0.71,2.31l-0.92,1.86l-1.16,3l-1.16,3.49l-0.71,3.7
	l-0.68,3.96l-0.47,4.39l-0.24,5.8v6.74l-0.24,7.64l0.94,18.56v2.31l-0.24,2.33l-0.23,2.08l-0.47,1.86l-0.45,1.63l-0.47,1.63
	l-0.92,1.39l-0.71,1.16l-8.82,8.11l-0.92,1.16l-0.92,1.18l-0.94,1.16l-0.68,1.39l-0.71,1.39l-0.45,1.63l-0.23,1.39l-0.24,1.61
	l-1.39,14.38l0.24,1.39l0.24,1.16l0.24,0.94l0.45,0.92l0.47,0.47l0.47,0.45l0.68,0.24l0.71,0.24l5.57-0.68l4.41,0.21l0.92,0.71
	l0.47,1.16l0.21,1.16l0.24,1.63l0.94,9.5l0.92,7.43l0.69,5.12l0.71,2.78l0.69,5.33v2.08l-0.21,2.1l-0.24,1.63l-0.47,1.16l-0.47,1.16
	l-0.45,0.71l-0.71,0.45l-0.69,0.24L138,256.3l-0.92,0.47l-1.16,0.45l-1.16,0.94l-2.57,2.08l-2.55,2.78l-5.09,3.49l-1.63,1.39
	l-1.16,1.16l-0.71,1.39l-0.21,1.39v3.7l-0.23,3.49l-0.47,3.02l-0.69,2.78l-0.47,2.31l-0.47,2.1l-0.47,1.84v1.39l0.24,1.39l0.47,1.18
	l0.24,0.45l0.47,0.24h0.45l0.71,0.24l2.55-0.71l3.47-1.16l3.25-0.92l2.55-0.47l2.33-0.24h1.16h1.63h1.84l1.63-0.45l1.63-0.71
	l1.39-1.16l4.17-3.02l0.47,0.47l0.47,0.92l0.45,1.39l0.24,1.86l0.47,5.8v7.64l0.24,3.02l0.92,3.72l1.16,4.41l1.86,4.86l0.24,0.92
	L155.16,323.11L155.16,323.11z M248.64,323.11l1.39-0.47l2.1-0.24l2.31-0.45l2.78-0.24l4.88-0.47h3.23l2.57-3.25l2.08-3.23
	l1.86-3.02l1.63-3.02l1.16-3.02l0.92-3.02l0.47-2.78l0.23-2.78v-8.35l-0.94-3.02l-0.69-2.55l-1.16-2.1l-1.18-1.84l-1.16-1.39
	l-1.63-0.94l-0.69-0.45l-0.71-0.24h-0.92h-0.71l-1.61,0.24l-1.39,0.45l-1.39,0.71l-1.18,0.69l-2.08,1.63l-1.86,1.86l-1.63,2.08
	l-1.61,1.86l-1.63,1.63l-1.63,1.63l-0.47,0.24l-0.47,0.68l-1.61,0.47l-1.39,1.16l-1.18,1.16l-1.16,1.39l-0.69,1.63l-0.47,2.1
	l-0.47,2.08v2.55v2.1l0.24,1.86l0.47,1.61l0.69,1.18l3.96,12.05l0.45,0.92L248.64,323.11L248.64,323.11z M321.69,51.5V18.79
	l-1.39-0.92l-1.15-0.71l-0.92-0.68l-0.47-0.71l-0.68-1.86l-0.71-1.16l-0.69-0.69l-0.71-0.24h-3.7h-0.94l-0.92,0.24l-0.69,0.24
	l-0.71,0.45l-0.69,0.71l-0.94,1.39l-0.92,2.08l-1.16,2.57l-1.16,2.55l-1.18,2.31l-1.15,1.63l-1.16,1.16l-0.92,1.16l-0.94,1.16
	l-0.45,1.63l-0.71,1.86l-0.47,1.86l-0.21,2.31l-0.24,2.31v2.78l-0.23,1.86v2.1l-0.47,2.08l-0.45,2.33l-1.39,7.17v6.04l-0.47,4.88
	l-0.47,1.84L292,72.13l-0.45,1.39l-0.71,0.94l-0.45,1.16l-0.47,0.92l-0.47,1.39l-0.24,1.39l-0.45,3.25l-0.23,3.7l-0.24,5.56
	l-0.47,4.65l-0.45,3.25l-0.24,2.55l-1.39,7.88l-0.92,6.96l-0.47,5.35l-0.24,4.17l-0.69,15.54l-0.47,3.7l-0.71,6.04l-0.45,5.57
	l-0.71,4.86l-0.47,4.41l-0.21,3.96l-0.23,3.7l-0.24,3.47v3.25l-0.71,5.33l-0.45,4.17l-0.71,3.49l-0.45,2.31L273,211.31l-1.39,4.17
	l-0.92,4.17l-0.94,4.17l-0.69,4.17l-0.47,4.17l-0.47,4.17l-0.21,3.94v4.17v2.78l0.45,2.1l0.47,0.68l0.47,0.47l0.45,0.24h0.47
	l2.78-0.24l4.86-0.92l2.57-0.71l2.31-0.69l0.92-0.47l0.94-0.47l0.45-0.21l0.47-0.47l0.92-1.86l0.47-1.39l0.47-1.39l0.24-1.16v-1.86
	l0.21-2.08l0.71-2.33l0.68-2.78l0.94-3.47l0.68-2.78l0.71-3.02l0.24-2.78l0.21-1.39l0.47-1.86l0.47-2.08l0.45-2.57l0.71-2.31
	l0.47-2.08l0.45-1.86l0.47-1.39l0.92-4.41l0.94-3.94l0.45-3.02v-2.55l0.24-2.33v-2.08l0.47-1.63l0.23-1.16l0.45-1.16l0.23-1.18
	v-1.16v-1.16v-1.39l0.24-1.16l0.23-1.39l0.69-1.39l0.47-1.63l0.47-2.08l0.24-2.33v-3.02l0.21-6.49l0.71-7.66l0.92-8.8l1.16-10.45
	l0.94-5.33l0.92-5.8l0.92-6.04l0.94-6.27l1.16-6.49l1.15-6.72l1.16-7.19l1.18-7.19l1.61-8.82l1.86-6.96l0.71-3.02l0.92-2.31
	l0.69-2.1l0.94-1.61L321.69,51.5L321.69,51.5z M243.31,93.24l-0.24-2.78l-0.47-2.78l-0.68-2.55L241,82.82l-1.18-2.33l-1.61-1.84
	l-1.86-1.86l-2.1-1.63l-2.31-1.39l-2.55-1.16l-3.02-1.16l-3.25-0.71l-3.47-0.68l-3.72-0.47l-3.94-0.24l-4.41-0.24l-5.09,0.24
	l-5.57,0.24l-5.8,0.71l-6.51,0.92l-12.05,1.86h-1.15l-1.39,0.45L168.39,74l-1.63,0.92l-1.63,0.71l-1.63,0.69l-1.39,0.24l-1.39,0.24
	h-0.92l-0.92,0.47l-0.94,0.45l-0.92,0.94l-0.92,1.16l-0.94,1.39l-0.92,1.86l-0.92,2.08l-0.94,2.31l-0.69,3.96l-0.71,5.09l-0.45,6.72
	l-0.47,7.9l-0.24,9.27l-0.24,10.68v12.05v2.78l0.71,2.31l0.24,1.18l0.45,0.92l0.71,0.92l0.69,0.71l0.71,0.69l0.68,0.47l0.94,0.71
	l0.92,0.21l2.31,0.71l2.55,0.23l2.33-0.23l2.31-0.24l2.1-0.24l2.08-0.69l3.94-0.94l3.02-0.92l16.01-4.41l5.09-1.16l4.65-1.39
	l4.17-1.63l3.49-1.63l3.02-1.84l2.55-2.1l1.16-1.16l0.92-1.16l0.94-1.18l0.68-1.16l1.16-1.16l2.1-1.16l3.02-1.63l3.94-1.63
	l0.69-0.69l0.94-0.71l0.92-1.16l0.92-1.39l2.1-3.25l2.31-4.17l1.39-3.02l1.39-2.78l0.94-3.02l0.92-2.78l0.71-2.78l0.45-2.78
	l0.23-2.78L243.31,93.24L243.31,93.24z"/>
</svg>
